<svg width="460" height="330" viewBox="0 0 460 330" fill="none" xmlns="http://www.w3.org/2000/svg">
<path d="M33.6083 329.998C33.6083 329.998 6.27192e-09 283.067 0 239.706C-8.2319e-09 182.795 33.6083 154.175 33.6083 154.175C111.833 72.5555 249.309 90.1288 293.842 90.1288C357.375 90.1288 408.878 161.28 442.704 214.184C471.5 264.51 462.801 329.996 428.004 329.998C309.581 330.005 152.032 329.991 33.6083 329.998Z" fill="#FFEBEE" style="fill:#FFEBEE;fill:color(display-p3 1.0000 0.9216 0.9333);fill-opacity:1;"/>
<path fill-rule="evenodd" clip-rule="evenodd" d="M184.366 115.408C177.997 115.408 172.835 120.576 172.835 126.95V289.978C172.835 296.353 177.997 301.52 184.366 301.52C190.735 301.52 195.898 296.353 195.898 289.978V126.95C195.898 120.576 190.735 115.408 184.366 115.408ZM188.691 289.978V126.95C188.691 124.56 186.754 122.622 184.366 122.622C181.978 122.622 180.042 124.56 180.042 126.95V289.978C180.042 292.369 181.978 294.307 184.366 294.307C186.754 294.307 188.691 292.369 188.691 289.978Z" fill="#F44336" style="fill:#F44336;fill:color(display-p3 0.9569 0.2627 0.2118);fill-opacity:1;"/>
<path fill-rule="evenodd" clip-rule="evenodd" d="M131.364 115.536C125.004 115.869 120.118 121.3 120.452 127.666L128.976 290.47C129.31 296.836 134.736 301.726 141.096 301.392C147.456 301.059 152.342 295.628 152.008 289.262L143.483 126.457C143.15 120.092 137.724 115.202 131.364 115.536ZM144.811 289.64L136.286 126.835C136.161 124.448 134.126 122.614 131.741 122.739C129.356 122.864 127.524 124.901 127.649 127.288L136.174 290.093C136.299 292.48 138.334 294.314 140.719 294.189C143.104 294.064 144.936 292.027 144.811 289.64Z" fill="#F44336" style="fill:#F44336;fill:color(display-p3 0.9569 0.2627 0.2118);fill-opacity:1;"/>
<path fill-rule="evenodd" clip-rule="evenodd" d="M236.8 115.536C230.44 115.203 225.014 120.093 224.681 126.458L216.156 289.263C215.823 295.629 220.709 301.059 227.069 301.393C233.429 301.727 238.855 296.837 239.188 290.471L247.713 127.666C248.046 121.301 243.16 115.87 236.8 115.536ZM231.991 290.094L240.515 127.289C240.64 124.902 238.808 122.865 236.423 122.74C234.038 122.615 232.003 124.449 231.878 126.836L223.354 289.64C223.229 292.028 225.061 294.064 227.446 294.189C229.831 294.314 231.866 292.481 231.991 290.094Z" fill="#F44336" style="fill:#F44336;fill:color(display-p3 0.9569 0.2627 0.2118);fill-opacity:1;"/>
<path fill-rule="evenodd" clip-rule="evenodd" d="M206.418 0.264192L247.086 12.9841L264.383 49.0527L258.892 72.1364H271.604C278.265 72.1364 283.541 77.7691 283.112 84.4223L279.72 136.967C286.455 133.335 294.921 135.611 298.903 142.243L336.717 205.233L346.775 199.184C349.505 197.543 353.047 198.426 354.687 201.158L370.905 228.173C372.545 230.905 371.662 234.45 368.932 236.092L358.874 242.141L396.148 304.229C400.248 311.059 398.04 319.922 391.216 324.026L381.282 330L278.33 158.507L268.025 318.144C267.633 324.217 262.597 328.942 256.517 328.942H113.752C107.696 328.942 102.673 324.254 102.248 318.209L85.8497 84.4867C85.3813 77.8105 90.6662 72.1364 97.3531 72.1364H110.47L104.59 34.2151C104.266 31.7648 106.57 29.4383 109.737 29.0187L173.922 20.5151C177.118 20.0916 180.041 22.3742 180.407 25.5807L183.521 52.8548L199.209 4.00645C200.178 0.989562 203.396 -0.681024 206.418 0.264192ZM261.363 309.465H108.86L94.6883 107.483H274.401L261.363 309.465ZM279.146 145.861L383.748 320.101L387.504 317.843C390.916 315.791 392.02 311.359 389.97 307.944L292.725 145.959C290.675 142.544 286.247 141.439 282.835 143.491L279.156 145.703L279.146 145.861ZM185.723 72.1359L185.507 70.2444L205.633 7.57631L241.262 18.7202L234.042 39.3671C233.161 41.8849 234.389 44.6539 236.846 45.6891L256.714 54.0619L251.698 72.1359H185.723ZM178.17 69.518L173.413 27.8591L112.157 35.9747L117.763 72.1358L177.33 72.1347L178.17 69.518ZM256.509 46.1484L246.143 26.5969L241.516 39.8301L256.509 46.1484ZM110.631 36.181C110.631 36.181 110.636 36.1787 110.647 36.1762C110.643 36.1777 110.637 36.1795 110.637 36.1795C110.633 36.1807 110.631 36.181 110.631 36.181ZM274.866 100.27H94.1821L93.0393 83.9814C92.8636 81.4778 94.8455 79.35 97.3531 79.35H271.604C274.102 79.35 276.081 81.4623 275.919 83.9573L274.866 100.27ZM260.897 316.679L260.833 317.679C260.686 319.956 258.797 321.728 256.517 321.728H113.752C111.481 321.728 109.597 319.97 109.438 317.703L109.366 316.679H260.897ZM349.252 206.11L340.617 211.303L355.35 235.845L363.985 230.652L349.252 206.11Z" fill="#F44336" style="fill:#F44336;fill:color(display-p3 0.9569 0.2627 0.2118);fill-opacity:1;"/>
</svg>
