<svg width="18" height="16" viewBox="0 0 18 16" fill="none" xmlns="http://www.w3.org/2000/svg">
<g clip-path="url(#clip0_3853_28062)">
<path d="M10.1963 0.00157036C10.2057 0.004711 10.2134 0.00785152 10.2228 0.00942184C10.2368 0.0109922 10.2508 0.0109922 10.2648 0.0125626C10.3658 0.0188438 10.4669 0.0235548 10.568 0.0314064C10.6784 0.0408283 10.7888 0.0518206 10.8977 0.0659535C10.9987 0.078516 11.0983 0.0942192 11.1978 0.109922C11.3813 0.139758 11.5648 0.177446 11.7452 0.221415C12.2661 0.347041 12.77 0.524487 13.2567 0.749043C13.9052 1.04897 14.5007 1.43527 15.0435 1.90323C15.1756 2.01629 15.3031 2.13407 15.4275 2.25498C15.4384 2.26597 15.4509 2.27853 15.4618 2.28953C15.468 2.29581 15.4695 2.30366 15.4664 2.30837C15.4633 2.31151 15.4602 2.31465 15.4555 2.31465C15.4462 2.31465 15.4369 2.31622 15.4275 2.31622C15.4073 2.31622 15.3856 2.31622 15.3653 2.31622C14.1073 2.31622 12.8493 2.31622 11.5928 2.31622C11.5259 2.31622 11.4606 2.30837 11.3953 2.2911C11.2289 2.24713 11.0594 2.21101 10.8883 2.18275C10.7702 2.16233 10.652 2.14506 10.5322 2.13407C10.4545 2.12778 10.3767 2.11836 10.299 2.11208C10.2508 2.10894 10.2026 2.10737 10.1544 2.1058C9.97708 2.09795 9.7998 2.10109 9.62253 2.10894C9.53233 2.11365 9.44369 2.12307 9.3535 2.13093C9.27108 2.13721 9.18867 2.14977 9.10625 2.16076C8.95385 2.18275 8.80146 2.21101 8.65062 2.24399C8.20743 2.34292 7.78445 2.49524 7.37703 2.69467C7.28217 2.74178 7.18886 2.79203 7.094 2.84071C7.07223 2.8517 7.04891 2.86426 7.02869 2.87369C7.01003 2.87055 7.00226 2.85798 6.99293 2.84699C6.94783 2.79517 6.90273 2.74178 6.85608 2.68839C6.45488 2.233 6.00858 1.82785 5.51562 1.4761C5.49385 1.4604 5.47208 1.44312 5.44876 1.42585C5.4472 1.42585 5.4472 1.42114 5.44409 1.418C5.4472 1.41329 5.45031 1.40701 5.45497 1.40387C5.47363 1.38973 5.4923 1.37717 5.51251 1.36461C6.03812 1.00815 6.59794 0.716066 7.19353 0.494651C7.53253 0.369025 7.87931 0.266955 8.23386 0.191579C8.41114 0.153891 8.58997 0.120915 8.77035 0.0942191C8.92275 0.0722347 9.0767 0.0518206 9.2291 0.039258C9.36283 0.0266955 9.49501 0.0172735 9.62875 0.0109922C9.65207 0.0109922 9.6754 0.0109922 9.69561 0C9.86201 0 10.0268 0 10.1932 0L10.1963 0.00157036Z" fill="#DDAA0E" style="fill:#DDAA0E;fill:color(display-p3 0.8648 0.6651 0.0552);fill-opacity:1;"/>
<path d="M9.5184 15.9969C9.50596 15.989 9.49196 15.9874 9.47952 15.9859C9.40177 15.9812 9.32246 15.9764 9.24471 15.9686C9.16385 15.9623 9.08454 15.9529 9.00367 15.9435C8.92748 15.934 8.85284 15.9231 8.77819 15.9136C8.6569 15.8979 8.53716 15.8759 8.41742 15.8524C8.1966 15.8084 7.97578 15.7566 7.75963 15.6938C6.95567 15.4629 6.20768 15.1112 5.51413 14.6401C5.49236 14.626 5.47214 14.6118 5.45193 14.5961C5.44726 14.593 5.44571 14.5851 5.44104 14.5773C5.50324 14.5286 5.56855 14.4846 5.63076 14.4375C5.69451 14.3888 5.75983 14.3402 5.82359 14.2899C5.88579 14.2412 5.94643 14.191 6.00553 14.1407C6.06773 14.0889 6.12837 14.0355 6.18902 13.9821C6.24811 13.9303 6.30565 13.8769 6.36319 13.822C6.42228 13.7654 6.47982 13.7089 6.53736 13.6524C6.59334 13.5958 6.64776 13.5393 6.70064 13.4828C6.75662 13.4231 6.80949 13.3634 6.86392 13.3022C6.91679 13.2441 6.96655 13.1828 7.01476 13.1279C7.03808 13.1232 7.05052 13.1357 7.06452 13.1436C7.1516 13.1907 7.23869 13.2378 7.32732 13.2833C7.74252 13.4938 8.17794 13.6492 8.63202 13.7529C8.79374 13.7906 8.95702 13.8204 9.1203 13.8439C9.22294 13.8581 9.32557 13.8706 9.42976 13.8785C9.63192 13.8958 9.83407 13.9052 10.0378 13.9005C10.1622 13.8973 10.2866 13.8911 10.411 13.8801C10.5136 13.8706 10.6178 13.8597 10.7205 13.8455C10.8418 13.8298 10.9615 13.8094 11.0812 13.7843C11.1465 13.7701 11.2119 13.756 11.2772 13.7419C11.2974 13.7372 11.3176 13.734 11.3394 13.734C11.372 13.7325 11.4031 13.7325 11.4358 13.7325C12.7389 13.7325 14.0436 13.7325 15.3467 13.7325C15.3701 13.7325 15.3934 13.7325 15.4152 13.734C15.4183 13.734 15.4229 13.7387 15.4245 13.7419C15.4245 13.745 15.4245 13.7513 15.4245 13.7544C15.409 13.7749 15.3934 13.7953 15.3747 13.8125C15.3219 13.8644 15.2674 13.9162 15.213 13.9649C15.0077 14.1455 14.7916 14.3119 14.5723 14.4752C14.5412 14.4988 14.5086 14.5223 14.4775 14.5443C14.0545 14.8568 13.5973 15.1128 13.1184 15.3263C12.6518 15.5336 12.1682 15.6938 11.6706 15.8068C11.5042 15.8445 11.3378 15.8775 11.1683 15.9042C11.0252 15.9262 10.8806 15.9466 10.7376 15.9607C10.6209 15.9717 10.5043 15.9827 10.3861 15.989C10.3659 15.989 10.3441 15.989 10.3255 16H9.52306L9.5184 15.9969Z" fill="#DDAA0E" style="fill:#DDAA0E;fill:color(display-p3 0.8648 0.6651 0.0552);fill-opacity:1;"/>
<path d="M17.5082 10.3154C17.5082 10.3154 17.4988 10.3249 17.4973 10.3311C17.4895 10.3578 17.4848 10.3861 17.4771 10.4112C17.1723 11.3848 16.7011 12.2673 16.062 13.0588C16.0526 13.0698 16.0449 13.0808 16.0355 13.0918C16.0169 13.1153 15.992 13.1263 15.964 13.1279C15.9438 13.1295 15.922 13.1279 15.9018 13.1279C15.8396 13.1279 15.7774 13.1279 15.7152 13.1279C14.7993 13.1279 13.8818 13.1279 12.9659 13.1279C12.941 13.1279 12.9145 13.1279 12.8897 13.1279C12.8788 13.1279 12.8663 13.1216 12.8663 13.1169C12.8663 13.1059 12.8741 13.1012 12.8819 13.0965C12.9021 13.0839 12.9208 13.0729 12.941 13.0604C13.6796 12.6097 14.2908 12.0224 14.7728 11.3C14.9594 11.0221 15.1181 10.7284 15.2533 10.4222C15.2705 10.3814 15.2891 10.3421 15.3078 10.3013C15.314 10.2887 15.3202 10.2762 15.328 10.2652C15.3358 10.2526 15.3482 10.2448 15.3622 10.2432C15.3762 10.2401 15.3902 10.2385 15.4026 10.2385C15.5161 10.2385 15.6281 10.2385 15.7416 10.2385C15.7743 10.2385 15.8054 10.2385 15.838 10.2385C16.3637 10.2385 16.8877 10.2385 17.4133 10.2385C17.446 10.2385 17.4786 10.2354 17.5097 10.2448V10.3139L17.5082 10.3154Z" fill="#DDAA0E" style="fill:#DDAA0E;fill:color(display-p3 0.8648 0.6651 0.0552);fill-opacity:1;"/>
<path d="M17.5082 5.75209C17.4849 5.75209 17.4616 5.75366 17.4398 5.75523C16.7618 5.75523 16.0853 5.75523 15.4073 5.75523C15.3824 5.75523 15.356 5.75837 15.3327 5.75052C15.3156 5.7301 15.3094 5.70498 15.2985 5.68142C15.1818 5.40819 15.0466 5.1428 14.8895 4.88998C14.4043 4.10482 13.7714 3.46884 12.9923 2.98204C12.9799 2.97419 12.9674 2.96948 12.9566 2.96006C12.9457 2.95064 12.9208 2.94907 12.927 2.92865C12.9317 2.91295 12.9519 2.9208 12.9643 2.9208C12.983 2.9208 13.0017 2.9208 13.0203 2.9208C13.5428 2.9208 14.0669 2.9208 14.5894 2.9208C15.0341 2.9208 15.4789 2.9208 15.9236 2.9208C15.9438 2.9208 15.9656 2.9208 15.9858 2.9208C16.0169 2.9208 16.0449 2.93493 16.0651 2.95692C16.0822 2.97576 16.0978 2.99618 16.1133 3.01659C16.2673 3.21131 16.4119 3.41231 16.5472 3.62116C16.9484 4.23673 17.2563 4.89783 17.4771 5.59977C17.4849 5.62332 17.4895 5.65002 17.4958 5.67357C17.4989 5.68142 17.5035 5.68928 17.5082 5.69713V5.75366V5.75209Z" fill="#DDAA0E" style="fill:#DDAA0E;fill:color(display-p3 0.8648 0.6651 0.0552);fill-opacity:1;"/>
<path d="M5.43324 4.22102C5.4208 4.21788 5.41458 4.20846 5.4068 4.19904C5.37415 4.15978 5.34149 4.12209 5.30728 4.08284C4.90141 3.62273 4.43645 3.23486 3.91084 2.9208C3.89062 2.90981 3.86885 2.90038 3.85486 2.88154C3.85486 2.86584 3.86574 2.85642 3.87507 2.84542C3.93261 2.77947 3.98859 2.71195 4.04768 2.64599C4.30738 2.35548 4.58574 2.08539 4.88586 1.83728C4.89519 1.82943 4.90296 1.82314 4.91229 1.81529C4.92474 1.80587 4.93562 1.80587 4.94961 1.81529C4.95894 1.82157 4.96828 1.82786 4.97916 1.83414C5.21553 1.99274 5.44257 2.1639 5.65872 2.34763C5.94796 2.59417 6.21699 2.86113 6.46579 3.14849C6.47668 3.16106 6.48757 3.17362 6.4969 3.18618C6.51089 3.20346 6.50934 3.21288 6.49223 3.22701C6.46269 3.249 6.43314 3.27098 6.40359 3.29453C6.06304 3.55521 5.75358 3.85043 5.47522 4.17863C5.46278 4.19276 5.45034 4.20532 5.4379 4.21945C5.4379 4.21945 5.43324 4.22102 5.43168 4.22102H5.43324Z" fill="#DDAA0E" style="fill:#DDAA0E;fill:color(display-p3 0.8648 0.6651 0.0552);fill-opacity:1;"/>
<path d="M5.43165 11.7868C5.44409 11.7884 5.45032 11.7994 5.45809 11.8072C5.48764 11.8402 5.51563 11.8732 5.54517 11.9077C5.81731 12.2187 6.11899 12.4982 6.44866 12.7463C6.52486 12.8044 6.52486 12.7887 6.4611 12.8625C6.03035 13.3619 5.54206 13.7937 4.99624 14.1612C4.99313 14.1643 4.98846 14.1659 4.98535 14.169C4.92937 14.2051 4.9387 14.2098 4.87805 14.1643C4.82829 14.1266 4.78009 14.0858 4.73343 14.0449C4.47218 13.8094 4.22337 13.5613 3.98856 13.299C3.9559 13.2629 3.9248 13.2252 3.89526 13.1876C3.88126 13.1703 3.86727 13.1499 3.85327 13.131C3.85794 13.1232 3.86105 13.1169 3.86727 13.1137C3.88437 13.1028 3.90303 13.0918 3.92014 13.0808C4.47063 12.7494 4.9558 12.3396 5.37256 11.8481C5.38967 11.8292 5.40677 11.8104 5.42388 11.7915C5.42388 11.7915 5.42855 11.79 5.4301 11.7884L5.43165 11.7868Z" fill="#DDAA0E" style="fill:#DDAA0E;fill:color(display-p3 0.8648 0.6651 0.0552);fill-opacity:1;"/>
<path fill-rule="evenodd" clip-rule="evenodd" d="M2.6358 4.56683C2.66807 4.47799 2.79805 4.47764 2.83084 4.56629L5.24275 11.0871C5.28367 11.1977 5.21739 11.3184 5.09959 11.3477L4.51409 11.4936C4.41007 11.5195 4.30281 11.4643 4.26719 11.3664L2.75235 7.20349C2.74584 7.18559 2.71959 7.18571 2.71325 7.20366L1.24275 11.3643C1.20782 11.4631 1.09995 11.5193 0.995235 11.4932L0.41017 11.3474C0.292823 11.3182 0.226507 11.1983 0.266625 11.0879L2.6358 4.56683Z" fill="#DDAA0E" style="fill:#DDAA0E;fill:color(display-p3 0.8648 0.6651 0.0552);fill-opacity:1;"/>
<path fill-rule="evenodd" clip-rule="evenodd" d="M9.72953 5.5C8.35882 5.5 7.24764 6.61929 7.24764 8C7.24764 9.38071 8.35882 10.5 9.72953 10.5C10.6586 10.5 11.4691 9.98553 11.8945 9.22366H10.3457C10.2353 9.22366 10.1457 9.13412 10.1457 9.02366V8.42366C10.1457 8.3132 10.2353 8.22366 10.3457 8.22366H13.1273C13.1922 8.22366 13.2399 8.28452 13.2244 8.34754L13.1024 8.84387C12.7274 10.369 11.3602 11.5 9.72953 11.5C7.81053 11.5 6.25488 9.933 6.25488 8C6.25488 6.067 7.81053 4.5 9.72953 4.5C10.5835 4.5 11.3665 4.81096 11.9714 5.3259C12.0132 5.36152 12.0166 5.42447 11.9801 5.46554L11.4509 6.06116C11.414 6.10266 11.3505 6.10602 11.3078 6.07053C10.8787 5.7138 10.3294 5.5 9.72953 5.5Z" fill="#DDAA0E" style="fill:#DDAA0E;fill:color(display-p3 0.8648 0.6651 0.0552);fill-opacity:1;"/>
</g>
<defs>
<clipPath id="clip0_3853_28062">
<rect width="17.2549" height="16" fill="white" style="fill:white;fill-opacity:1;" transform="translate(0.254883)"/>
</clipPath>
</defs>
</svg>
