<svg width="300" height="88" viewBox="0 0 300 88" fill="none" xmlns="http://www.w3.org/2000/svg">
<path fill-rule="evenodd" clip-rule="evenodd" d="M223.29 6.64091H74.999L75.0449 88H223.332L223.29 6.64091Z" fill="#E8ECEF" style="fill:#E8ECEF;fill:color(display-p3 0.9098 0.9255 0.9373);fill-opacity:1;"/>
<path fill-rule="evenodd" clip-rule="evenodd" d="M231.624 0.000289917H83.333L83.3769 81.3594H231.666L231.624 0.000289917Z" fill="#C7CBD1" style="fill:#C7CBD1;fill:color(display-p3 0.7804 0.7961 0.8196);fill-opacity:1;"/>
<path fill-rule="evenodd" clip-rule="evenodd" d="M128.321 13.2834H91.666L91.6768 67.6611H128.333L128.321 13.2834Z" fill="#DEE1E6" style="fill:#DEE1E6;fill:color(display-p3 0.8706 0.8824 0.9020);fill-opacity:1;"/>
<path fill-rule="evenodd" clip-rule="evenodd" d="M223.304 13.2834H134.999L135.025 67.6611H223.332L223.304 13.2834Z" fill="#DEE1E6" style="fill:#DEE1E6;fill:color(display-p3 0.8706 0.8824 0.9020);fill-opacity:1;"/>
<path fill-rule="evenodd" clip-rule="evenodd" d="M124.157 19.9239H95.832L95.8406 61.4336H124.165L124.157 19.9239Z" fill="white" style="fill:white;fill-opacity:1;"/>
<path fill-rule="evenodd" clip-rule="evenodd" d="M212.895 19.9239H145.415L145.435 61.4336H212.915L212.895 19.9239Z" fill="white" style="fill:white;fill-opacity:1;"/>
<path fill-rule="evenodd" clip-rule="evenodd" d="M119.161 26.9815H100.833L100.838 54.3779H119.166L119.161 26.9815Z" fill="#C7CBD1" style="fill:#C7CBD1;fill:color(display-p3 0.7804 0.7961 0.8196);fill-opacity:1;"/>
<path fill-rule="evenodd" clip-rule="evenodd" d="M202.07 26.9815H156.249L156.262 54.3779H202.082L202.07 26.9815Z" fill="#C7CBD1" style="fill:#C7CBD1;fill:color(display-p3 0.7804 0.7961 0.8196);fill-opacity:1;"/>
<path fill-rule="evenodd" clip-rule="evenodd" d="M295.601 18.2233H239.667L239.684 74.1143H295.618L295.601 18.2233Z" fill="#E8ECEF" style="fill:#E8ECEF;fill:color(display-p3 0.9098 0.9255 0.9373);fill-opacity:1;"/>
<path fill-rule="evenodd" clip-rule="evenodd" d="M299.983 14.0005H245.223L245.239 68.7197H300L299.983 14.0005Z" fill="#C7CBD1" style="fill:#C7CBD1;fill:color(display-p3 0.7804 0.7961 0.8196);fill-opacity:1;"/>
<path fill-rule="evenodd" clip-rule="evenodd" d="M290.934 23.0474H254.279L254.29 59.6748H290.945L290.934 23.0474Z" fill="#DEE1E6" style="fill:#DEE1E6;fill:color(display-p3 0.8706 0.8824 0.9020);fill-opacity:1;"/>
<path fill-rule="evenodd" clip-rule="evenodd" d="M283.429 30.5485H261.789L261.795 52.1719H283.436L283.429 30.5485Z" fill="white" style="fill:white;fill-opacity:1;"/>
<path fill-rule="evenodd" clip-rule="evenodd" d="M59.0367 17.2494H0L0.0171175 76.7549H59.0549L59.0367 17.2494Z" fill="#E8ECEF" style="fill:#E8ECEF;fill:color(display-p3 0.9098 0.9255 0.9373);fill-opacity:1;"/>
<path fill-rule="evenodd" clip-rule="evenodd" d="M64.9812 11.9998H5.94336L5.96104 71.5059H64.9989L64.9812 11.9998Z" fill="#C7CBD1" style="fill:#C7CBD1;fill:color(display-p3 0.7804 0.7961 0.8196);fill-opacity:1;"/>
<path fill-rule="evenodd" clip-rule="evenodd" d="M55.2244 21.8355H15.707L15.7184 61.667H55.2363L55.2244 21.8355Z" fill="white" style="fill:white;fill-opacity:1;"/>
<path fill-rule="evenodd" clip-rule="evenodd" d="M47.133 29.995H23.8027L23.8096 53.5098H47.1392L47.133 29.995Z" fill="#DEE1E6" style="fill:#DEE1E6;fill:color(display-p3 0.8706 0.8824 0.9020);fill-opacity:1;"/>
</svg>
