<svg width="102" height="60" viewBox="0 0 102 60" fill="none" xmlns="http://www.w3.org/2000/svg">
<path fill-rule="evenodd" clip-rule="evenodd" d="M50.5409 48.3168C22.6282 47.9589 0 50.2595 0 53.4557C0 56.652 22.6282 59.5336 50.5409 59.8919C78.4536 60.2503 101.08 57.9497 101.08 54.753C101.08 51.5572 78.4536 48.6751 50.5409 48.3168Z" fill="#E8ECEF" style="fill:#E8ECEF;fill:color(display-p3 0.9098 0.9255 0.9373);fill-opacity:1;"/>
<path fill-rule="evenodd" clip-rule="evenodd" d="M15.7377 14.3961H41.3478L26.5632 29.1807H0.953125L15.7377 14.3961Z" fill="#A3ACB2" style="fill:#A3ACB2;fill:color(display-p3 0.6392 0.6745 0.6980);fill-opacity:1;"/>
<path fill-rule="evenodd" clip-rule="evenodd" d="M55.7828 1.39894L24.9473 9.60998L31.4243 33.9326L62.2599 25.7216L55.7828 1.39894Z" fill="#A3ACB2" style="fill:#A3ACB2;fill:color(display-p3 0.6392 0.6745 0.6980);fill-opacity:1;"/>
<path fill-rule="evenodd" clip-rule="evenodd" d="M42.5059 32.6299H74.416V7.45984H42.5059V32.6299Z" fill="#F0F2F5" style="fill:#F0F2F5;fill:color(display-p3 0.9412 0.9490 0.9608);fill-opacity:1;"/>
<path fill-rule="evenodd" clip-rule="evenodd" d="M82.3867 10.3305L52.1957 -0.000110626L44.0469 23.8145L74.2383 34.1455L82.3867 10.3305Z" fill="#DEE1E6" style="fill:#DEE1E6;fill:color(display-p3 0.8706 0.8824 0.9020);fill-opacity:1;"/>
<path fill-rule="evenodd" clip-rule="evenodd" d="M75.2042 12.8571L56.3257 6.39734L51.2305 21.2879L70.1086 27.748L75.2042 12.8571Z" fill="white" style="fill:white;fill-opacity:1;"/>
<path fill-rule="evenodd" clip-rule="evenodd" d="M41.3479 14.3954H62.4701V53.3232H15.7383V14.3954H41.3479Z" fill="#C7CBD1" style="fill:#C7CBD1;fill:color(display-p3 0.7804 0.7961 0.8196);fill-opacity:1;"/>
<path fill-rule="evenodd" clip-rule="evenodd" d="M60.0927 14.3954V37.7712C60.0927 46.3258 53.1641 53.3232 44.6953 53.3232H60.0927H85.7015V14.3954H60.0927Z" fill="#A3ACB2" style="fill:#A3ACB2;fill:color(display-p3 0.6392 0.6745 0.6980);fill-opacity:1;"/>
<path fill-rule="evenodd" clip-rule="evenodd" d="M85.703 14.3961H60.0938L74.8784 29.1807H100.486L85.703 14.3961Z" fill="#C7CBD1" style="fill:#C7CBD1;fill:color(display-p3 0.7804 0.7961 0.8196);fill-opacity:1;"/>
</svg>
