<svg width="78" height="64" viewBox="0 0 78 64" fill="none" xmlns="http://www.w3.org/2000/svg">
<path d="M9.48013 13.2492H30.1823C30.6854 13.2347 31.1829 13.3567 31.6223 13.6023C32.0616 13.8478 32.4263 14.2077 32.6777 14.6438L34.5179 17.9771C34.7653 18.4228 35.1268 18.7947 35.5654 19.0545C36.0039 19.3143 36.5037 19.4527 37.0133 19.4554H61.1868C61.5587 19.4461 61.9288 19.5113 62.2752 19.6473C62.6215 19.7833 62.9372 19.9873 63.2035 20.2473C63.4699 20.5072 63.6815 20.8179 63.8259 21.1609C63.9704 21.5039 64.0447 21.8724 64.0446 22.2447V61.0019C64.0264 61.748 63.7173 62.4574 63.1833 62.9786C62.6493 63.4998 61.9328 63.7914 61.1868 63.7912H9.48013C8.74067 63.7912 8.03148 63.4973 7.5086 62.9742C6.98571 62.4511 6.69196 61.7417 6.69196 61.0019V16.0943C6.68455 15.7233 6.75117 15.3546 6.88796 15.0097C7.02476 14.6648 7.22895 14.3507 7.4886 14.0858C7.74825 13.8208 8.05815 13.6104 8.40011 13.4667C8.74207 13.3231 9.10925 13.2491 9.48013 13.2492Z" fill="#FFC107" style="fill:#FFC107;fill:color(display-p3 1.0000 0.7569 0.0275);fill-opacity:1;"/>
<path d="M1.99707e-08 11.9382V49.4821C-8.57644e-05 50.1851 0.276197 50.8599 0.769155 51.3609C1.26211 51.8618 1.93222 52.1488 2.63484 52.1598H40.8746C41.2261 52.1598 41.5742 52.0905 41.8989 51.956C42.2237 51.8214 42.5187 51.6241 42.7673 51.3755C43.0159 51.1268 43.213 50.8317 43.3475 50.5068C43.482 50.1819 43.5513 49.8337 43.5513 49.4821V2.67772C43.5513 2.32608 43.482 1.97788 43.3475 1.653C43.213 1.32813 43.0159 1.03294 42.7673 0.784286C42.5187 0.535637 42.2237 0.338399 41.8989 0.203831C41.5742 0.069263 41.2261 0 40.8746 0H11.32L1.99707e-08 11.9382Z" fill="#E7E7CF" style="fill:#E7E7CF;fill:color(display-p3 0.9076 0.9076 0.8124);fill-opacity:1;"/>
<path d="M11.3618 0V9.24651C11.3637 9.59933 11.2958 9.94903 11.1621 10.2755C11.0284 10.602 10.8315 10.8988 10.5828 11.149C10.3341 11.3991 10.0384 11.5976 9.71269 11.733C9.38704 11.8685 9.03785 11.9382 8.68517 11.9382H0L11.3618 0Z" fill="#DBDBC7" style="fill:#DBDBC7;fill:color(display-p3 0.8596 0.8596 0.7804);fill-opacity:1;"/>
<path d="M73.8033 28.7693H73.812L73.8207 28.769C74.1947 28.7559 74.5662 28.8349 74.9027 28.9989C75.2391 29.163 75.5302 29.4071 75.7505 29.7099C75.9707 30.0127 76.1134 30.3649 76.1659 30.7357C76.2184 31.1065 76.1792 31.4846 76.0516 31.8367L76.0488 31.8445L76.0463 31.8523L66.2879 61.8644C66.133 62.3386 65.8326 62.7519 65.4296 63.0455C65.0268 63.3389 64.5419 63.498 64.0437 63.5001C64.0433 63.5001 64.043 63.5001 64.0427 63.5001L9.49415 63.5001H9.49355C9.12058 63.5006 8.75279 63.4125 8.42045 63.2431C8.0881 63.0737 7.80064 62.8279 7.5817 62.5257C7.36276 62.2236 7.21858 61.8737 7.16103 61.505C7.10349 61.1363 7.13423 60.7591 7.2507 60.4046L7.25089 60.404L17.0513 30.447L17.0514 30.447L17.0542 30.4377C17.1996 29.9622 17.4915 29.5448 17.8881 29.2452C18.2834 28.9465 18.7627 28.78 19.2579 28.7693H73.8033Z" fill="#FFD54F" stroke="black" style="fill:#FFD54F;fill:color(display-p3 1.0000 0.8353 0.3098);fill-opacity:1;stroke:black;stroke-opacity:1;"/>
<path d="M60.4766 34.5L66.8412 34.7687H75.6309L77.8057 28.0605C77.9596 27.6349 78.0077 27.1782 77.9458 26.7299C77.8839 26.2815 77.7138 25.855 77.4504 25.4871C77.1869 25.1192 76.8379 24.821 76.4335 24.6181C76.0291 24.4153 75.5814 24.3139 75.1291 24.3228H63.5582C62.9531 24.311 62.3606 24.4965 61.8702 24.8513C61.3798 25.206 61.0181 25.7107 60.8397 26.2893L60.4766 34.5Z" fill="#FFD54F" style="fill:#FFD54F;fill:color(display-p3 1.0000 0.8353 0.3098);fill-opacity:1;"/>
<path fill-rule="evenodd" clip-rule="evenodd" d="M74.6522 23.8228C75.1839 23.8132 75.7099 23.9327 76.1853 24.1711C76.6622 24.4103 77.0738 24.7621 77.3845 25.1959C77.6952 25.6298 77.8957 26.1328 77.9687 26.6615C78.0413 27.1873 77.9856 27.7228 77.8065 28.2224L75.6341 34.923L74.4701 35L76.8607 27.8982L76.8636 27.8904C76.9899 27.5411 77.0293 27.1663 76.9785 26.7983C76.9277 26.4303 76.7881 26.0803 76.5719 25.7783C76.3556 25.4763 76.0692 25.2316 75.7373 25.0651C75.4054 24.8986 75.038 24.8154 74.6667 24.8227L74.6569 24.8229L63.5474 24.8228C63.0508 24.8131 62.5646 24.9653 62.1621 25.2564C61.7596 25.5476 61.4627 25.9619 61.3163 26.4367L61.3135 26.4455L60.4215 29.3334L59.9513 29.1562L59.4766 29L60.3625 26.1372C60.5734 25.4569 60.9994 24.8635 61.5764 24.4461C62.1533 24.0287 62.8501 23.8101 63.5618 23.8228L74.6522 23.8228Z" fill="black" style="fill:black;fill-opacity:1;"/>
</svg>
