<svg width="255" height="108" viewBox="0 0 255 108" fill="none" xmlns="http://www.w3.org/2000/svg">
<g clip-path="url(#clip0_147_1454)">
<path d="M199.81 0.029826C200.06 0.208782 200.36 0.129246 200.64 0.14913C201.991 0.258492 203.341 0.328086 204.682 0.467274C208.184 0.815244 211.605 1.55095 214.967 2.60481C222.94 5.10025 229.953 9.21624 236.026 14.913C236.196 15.0721 236.366 15.2411 236.526 15.4002C236.556 15.43 236.576 15.4896 236.616 15.5791C236.526 15.6089 236.436 15.6587 236.346 15.6686C236.116 15.6785 235.876 15.6686 235.646 15.6686C227.142 15.6686 218.638 15.6686 210.134 15.6686C209.614 15.6686 209.104 15.6089 208.594 15.4797C204.462 14.396 200.25 14.0381 195.988 14.3165C190.175 14.7042 184.693 16.2949 179.571 19.0588C179.321 19.1881 179.07 19.3173 178.79 19.4565C177.95 18.5418 177.15 17.6272 176.299 16.7523C175.449 15.8774 174.578 15.0224 173.678 14.2071C172.798 13.4018 171.887 12.6363 170.947 11.8906C169.996 11.1251 169.006 10.4192 168.026 9.67357C168.056 9.3952 168.316 9.3256 168.496 9.2063C172.317 6.66114 176.399 4.63297 180.731 3.11185C184.373 1.83927 188.115 0.964375 191.946 0.507042C193.437 0.328086 194.948 0.258492 196.448 0.129246C196.828 0.0994201 197.229 0.178956 197.599 0H199.78L199.81 0.029826Z" fill="#E6B10F" style="fill:#E6B10F;fill:color(display-p3 0.9000 0.6929 0.0603);fill-opacity:1;"/>
<path d="M196.058 108C195.838 107.96 195.608 107.891 195.388 107.871C185.613 107.264 176.669 104.252 168.516 98.8732C168.326 98.744 168.146 98.6048 167.906 98.4358C168.606 97.9188 169.256 97.4615 169.886 96.9743C170.547 96.4673 171.197 95.9602 171.837 95.4234C172.458 94.9064 173.068 94.3795 173.658 93.8426C174.258 93.3057 174.839 92.749 175.409 92.1823C175.999 91.5957 176.569 90.9992 177.13 90.3927C177.67 89.8061 178.2 89.1997 178.76 88.5733C178.94 88.6628 179.111 88.7225 179.261 88.8119C182.882 90.8103 186.714 92.2121 190.776 93.0273C193.797 93.6338 196.849 93.8824 199.93 93.7829C202.621 93.7034 205.262 93.3455 207.884 92.749C208.104 92.6993 208.344 92.6694 208.574 92.6694C217.568 92.6694 226.572 92.6694 235.566 92.6694C235.816 92.6694 236.066 92.6893 236.316 92.6993C236.316 92.9975 236.106 93.0969 235.966 93.2262C233.985 95.0953 231.864 96.8053 229.613 98.3563C223.31 102.701 216.377 105.574 208.844 107.016C206.573 107.453 204.272 107.742 201.961 107.861C201.711 107.871 201.451 107.94 201.2 107.99H196.048L196.058 108Z" fill="#E6B10F" style="fill:#E6B10F;fill:color(display-p3 0.9000 0.6929 0.0603);fill-opacity:1;"/>
<path d="M0 64.0961C0.0900405 64.0564 0.220099 64.0464 0.250113 63.9768C0.350157 63.7979 0.410185 63.599 0.480216 63.4002C5.63253 48.855 10.7748 34.3099 15.9272 19.7548C16.0272 19.4665 16.1373 19.1781 16.2673 18.8401C16.3574 18.9594 16.4174 19.0091 16.4374 19.0787C21.9299 34.0017 27.4123 48.9147 32.9048 63.8376C32.9348 63.9271 32.9448 64.0365 32.9648 64.1757C32.3045 64.5534 31.5742 64.7225 30.8839 64.9909C30.6038 64.802 30.5738 64.4938 30.4837 64.2452C28.963 60.1193 27.4523 55.9934 25.9317 51.8675C22.8603 43.5162 19.7989 35.1748 16.7275 26.8335C16.6275 26.575 16.5875 26.2867 16.3273 26.0182C16.2273 26.2668 16.1273 26.4557 16.0572 26.6645C14.6566 30.6114 13.256 34.5584 11.8653 38.5054C8.83397 47.0853 5.80261 55.6653 2.76124 64.2353C2.6712 64.4739 2.57116 64.7125 2.46111 64.981C2.02091 64.9114 1.66075 64.7225 1.26057 64.6131C0.840378 64.5037 0.460207 64.2254 0 64.2552C0 64.2055 0 64.1558 0 64.0961Z" fill="#E6B10F" style="fill:#E6B10F;fill:color(display-p3 0.9000 0.6929 0.0603);fill-opacity:1;"/>
<path d="M235.736 69.1566C236.616 69.0771 250.032 69.087 250.673 69.1765C250.643 69.3455 250.643 69.5244 250.593 69.6835C249.182 74.3662 247.151 78.7705 244.52 82.8964C243.379 84.686 242.139 86.406 240.788 88.0563C240.638 88.2353 240.488 88.4043 240.318 88.6031C233.175 88.6031 226.032 88.6031 218.768 88.6031C219.058 88.2254 219.389 88.1259 219.659 87.947C219.959 87.7382 220.269 87.5592 220.579 87.3604C220.859 87.1814 221.139 86.9925 221.42 86.7937C221.72 86.5849 222.02 86.3761 222.31 86.1674C222.58 85.9685 222.85 85.7697 223.12 85.5609C223.41 85.3422 223.691 85.1135 223.981 84.8848C224.241 84.6761 224.501 84.4573 224.761 84.2386C225.041 84 225.311 83.7614 225.581 83.5228C225.831 83.2941 226.082 83.0655 226.322 82.8368C226.562 82.6081 226.812 82.3695 227.052 82.1309C227.312 81.8724 227.562 81.6139 227.812 81.3554C228.042 81.1069 228.273 80.8683 228.503 80.6098C228.743 80.3414 228.983 80.063 229.223 79.7945C229.443 79.536 229.653 79.2775 229.873 79.0191C230.103 78.7407 230.324 78.4524 230.544 78.164C230.754 77.8956 230.954 77.6272 231.144 77.3587C231.344 77.0903 231.534 76.8119 231.724 76.5336C231.924 76.2353 232.134 75.937 232.324 75.6288C232.504 75.3505 232.685 75.0621 232.865 74.7738C233.055 74.4656 233.235 74.1475 233.415 73.8393C233.585 73.551 233.745 73.2527 233.915 72.9644C234.085 72.6462 234.255 72.3281 234.425 72C234.575 71.7017 234.725 71.4035 234.876 71.0953C235.026 70.7672 235.176 70.4391 235.326 70.111C235.466 69.8028 235.606 69.5046 235.756 69.1665L235.736 69.1566Z" fill="#E6B10F" style="fill:#E6B10F;fill:color(display-p3 0.9000 0.6929 0.0603);fill-opacity:1;"/>
<path d="M240.558 19.7647C243.489 23.2842 245.901 27.1019 247.841 31.208C249.152 33.9818 250.523 37.7299 250.643 38.8136C250.623 38.8335 250.613 38.8534 250.593 38.8732C250.573 38.8832 250.543 38.9031 250.523 38.9031C245.821 38.9031 241.108 38.923 236.406 38.9329C236.196 38.9329 235.996 38.9329 235.756 38.9329C235.336 38.0481 234.946 37.1732 234.515 36.3281C234.095 35.5029 233.655 34.6777 233.185 33.8724C232.695 33.0472 232.174 32.2419 231.634 31.4565C231.104 30.691 230.544 29.9453 229.963 29.2196C229.363 28.4739 228.733 27.7481 228.083 27.0423C227.452 26.3563 226.792 25.7001 226.102 25.0638C225.401 24.4076 224.671 23.7813 223.931 23.1748C223.2 22.5882 222.45 22.0315 221.69 21.4946C220.909 20.9478 220.099 20.4408 219.299 19.9138C219.359 19.8442 219.389 19.7846 219.419 19.7846C226.442 19.7846 233.465 19.7846 240.568 19.7846L240.558 19.7647Z" fill="#E6B10F" style="fill:#E6B10F;fill:color(display-p3 0.9000 0.6929 0.0603);fill-opacity:1;"/>
<path d="M142.804 49.9884C140.413 49.9884 138.072 49.9983 135.731 49.9884C133.4 49.9685 131.059 50.0083 128.678 49.9387C128.578 49.1334 128.598 48.3778 128.668 47.5924C128.798 47.5625 128.898 47.5327 128.998 47.5327C134.791 47.5625 140.593 47.5924 146.456 47.6222C146.436 47.7912 146.456 47.9205 146.416 48.0199C144.475 53.3687 141.374 57.9122 136.822 61.4118C134.4 63.2709 131.669 64.5136 128.658 65.1002C126.607 65.5079 124.536 65.5774 122.445 65.3687C120.234 65.1499 118.083 64.6727 116.022 63.8475C110.77 61.7597 106.928 58.1408 104.307 53.1996C102.936 50.6147 102.076 47.8608 101.686 44.9677C101.125 40.7622 101.506 36.6562 103.116 32.7092C105.507 26.8633 109.759 22.9262 115.732 20.8285C118.703 19.7846 121.775 19.3074 124.926 19.4167C128.478 19.536 131.779 20.5302 134.861 22.29C137.042 23.5327 138.962 25.1035 140.763 26.8434C141.043 27.1118 141.324 27.3902 141.594 27.6586C141.624 27.6885 141.644 27.7481 141.694 27.8475C141.504 28.1557 141.203 28.3944 140.943 28.6727C140.683 28.961 140.403 29.2295 140.123 29.5079C139.803 29.3687 139.603 29.1201 139.383 28.9014C138.392 27.947 137.382 27.0124 136.291 26.1773C133.9 24.3281 131.269 22.9561 128.308 22.28C126.057 21.763 123.776 21.7034 121.485 21.9818C119.564 22.2204 117.693 22.6379 115.892 23.3438C110.079 25.6305 106.318 29.7962 104.657 35.7713C102.756 42.5816 104.407 50.3761 108.979 55.8542C112.11 59.6023 116.122 61.8691 120.944 62.7241C122.385 62.9826 123.836 63.082 125.296 63.0522C128.698 62.9627 131.779 61.9188 134.581 60.0298C136.341 58.8467 137.862 57.4051 139.213 55.7846C140.493 54.2535 141.604 52.5932 142.534 50.8235C142.654 50.6048 142.824 50.396 142.804 49.9884Z" fill="#E6B10F" style="fill:#E6B10F;fill:color(display-p3 0.9000 0.6929 0.0603);fill-opacity:1;"/>
<path d="M52.0733 30.2635C52.9037 30.2535 53.6541 30.2237 54.4144 30.2833C54.5345 30.5915 54.4844 30.8799 54.4844 31.1582C54.4844 33.3853 54.4844 35.6023 54.4844 37.8293C54.4844 42.4325 54.4844 47.0257 54.4844 51.6288C54.4844 51.9072 54.4244 52.1955 54.5645 52.4938C54.6545 52.5137 54.7546 52.5534 54.8446 52.5634C55.745 52.623 61.9778 52.5733 62.528 52.5037C62.5581 52.3745 62.5981 52.2353 62.6081 52.0862C62.7582 50.7738 62.9983 49.4814 63.4985 48.2485C63.6886 47.7713 63.8987 47.2941 64.1488 46.8467C65.4694 44.4805 67.4503 42.9693 70.1215 42.3629C72.2424 41.8857 74.3534 41.9155 76.4443 42.5418C78.3552 43.1185 79.8759 44.232 81.0264 45.8525C81.9268 47.1152 82.487 48.5269 82.8272 50.0282C83.1673 51.5195 83.2774 53.0406 83.1573 54.5717C83.1573 54.6711 83.1273 54.7705 83.0973 54.9097C82.9372 54.9296 82.7972 54.9693 82.6471 54.9793C82.417 54.9892 82.1769 54.9793 81.9468 54.9793C76.6144 54.9793 71.282 54.9793 65.9496 54.9793C65.6695 54.9793 65.3893 54.9892 65.0792 54.9992C65.0392 55.1185 64.9892 55.2179 64.9892 55.3074C65.0492 56.2121 65.1792 57.1069 65.4694 57.9718C66.3498 60.6761 68.2206 62.2767 71.0019 62.8534C71.8723 63.0323 72.7526 63.092 73.643 63.092C76.0341 63.092 78.4252 63.092 80.8163 63.092C81.0964 63.092 81.3865 63.0423 81.6867 63.1914C81.7667 63.937 81.7467 64.6727 81.6967 65.4482C81.5166 65.4681 81.3665 65.5079 81.2165 65.5079C78.4552 65.5079 75.704 65.5079 72.9427 65.5079C71.9223 65.5079 70.9218 65.3587 69.9414 65.1002C66.3898 64.1856 64.1188 61.9387 63.0583 58.4689C62.7782 57.5543 62.6081 56.6098 62.5581 55.6553C62.5581 55.4764 62.5281 55.2974 62.508 55.0787C62.388 55.0489 62.2679 54.9793 62.1479 54.9793C59.7068 54.9793 57.2557 54.9793 54.8146 54.9793C54.7445 54.9793 54.6645 55.0091 54.5445 55.029C54.5245 55.1682 54.4744 55.3074 54.4744 55.4565C54.4744 57.1665 54.4744 58.8666 54.4744 60.5766C54.4744 61.1831 54.6645 61.7498 54.9646 62.2668C55.2348 62.744 55.6349 63.0323 56.2252 63.0323C57.2357 63.0323 58.2561 63.0522 59.2666 63.0621C59.5267 63.0621 59.7768 63.0621 60.0269 63.0621C60.227 63.6686 60.307 64.623 60.207 65.4085C60.0469 65.4283 59.8669 65.4781 59.6968 65.4781C58.4962 65.4781 57.3057 65.488 56.1052 65.4582C54.6945 65.4184 53.624 64.7622 52.9037 63.5692C52.3435 62.6446 52.0433 61.6404 52.0433 60.5468C52.0433 58.9959 52.0433 57.4449 52.0433 55.894C52.0433 55.6156 52.0834 55.3273 51.9633 55.0389C51.5831 54.8898 51.193 54.9693 50.8028 54.9594C50.4426 54.9495 50.0825 54.9594 49.7123 54.9594C49.5222 54.5518 49.6022 54.164 49.6022 53.7862C49.6022 53.4084 49.5522 53.0207 49.6623 52.6031C50.4226 52.4938 51.1829 52.623 51.9533 52.5137C51.9833 52.3447 52.0333 52.2055 52.0433 52.0563C52.0533 51.7978 52.0433 51.5394 52.0433 51.2809C52.0433 44.6396 52.0433 37.9983 52.0433 31.3571C52.0433 31.029 52.0533 30.691 52.0633 30.2535L52.0733 30.2635ZM65.1192 52.4739C65.3893 52.6429 65.6895 52.5733 65.9696 52.5733C68.8509 52.5733 71.7322 52.5733 74.6235 52.5733C76.4143 52.5733 78.2051 52.5733 79.9959 52.5733C80.226 52.5733 80.4661 52.633 80.6862 52.454C80.7863 51.9669 80.6362 51.4896 80.5462 51.0124C80.3361 49.8094 79.9459 48.6661 79.2956 47.6222C78.3252 46.0712 76.9445 45.1069 75.1637 44.6993C73.8832 44.4109 72.5826 44.3911 71.292 44.5998C68.7609 44.9975 66.9801 46.3993 65.9496 48.7357C65.6094 49.5211 65.3693 50.3364 65.2293 51.1814C65.1592 51.6089 65.0292 52.0365 65.1192 52.4739Z" fill="#E6B10F" style="fill:#E6B10F;fill:color(display-p3 0.9000 0.6929 0.0603);fill-opacity:1;"/>
<path d="M183.583 42.3827C183.683 43.1682 183.733 61.7299 183.653 64.3248C183.653 64.4739 183.623 64.623 183.593 64.8119C182.822 64.9113 182.082 64.8716 181.321 64.8318C181.141 64.4739 181.241 64.106 181.221 63.7581C181.201 63.43 181.221 63.1019 181.201 62.8036C180.961 62.6943 180.861 62.8434 180.751 62.9329C179.871 63.589 178.96 64.1657 177.97 64.6429C176.479 65.3687 174.919 65.8359 173.258 65.9155C170.417 66.0547 167.875 65.2295 165.634 63.4896C164.964 62.9726 164.494 62.2966 164.084 61.5609C162.933 59.5029 162.393 57.2958 162.443 54.9494C162.533 50.8036 164.404 47.5824 167.705 45.1367C169.616 43.715 171.787 42.8898 174.108 42.4126C176.699 41.8757 179.321 41.7962 181.942 42.1143C182.482 42.174 183.012 42.2933 183.583 42.3927V42.3827ZM181.171 44.5203C181.001 44.4805 180.851 44.4308 180.701 44.4209C178.48 44.2916 176.279 44.3711 174.108 44.8881C172.558 45.2659 171.087 45.8227 169.736 46.6876C168.586 47.4233 167.585 48.3181 166.775 49.4117C165.044 51.7581 164.524 54.3629 165.064 57.1963C165.284 58.3496 165.664 59.4432 166.265 60.4573C166.545 60.9246 166.855 61.372 167.305 61.7001C168.716 62.734 170.297 63.3504 172.057 63.4697C173.758 63.589 175.359 63.1914 176.879 62.4557C178.34 61.7398 179.611 60.7655 180.801 59.6719C181.111 59.3836 181.221 59.0654 181.221 58.6479C181.211 54.1541 181.221 49.6504 181.221 45.1566C181.221 44.9577 181.201 44.7489 181.181 44.5203H181.171Z" fill="#E6B10F" style="fill:#E6B10F;fill:color(display-p3 0.9000 0.6929 0.0603);fill-opacity:1;"/>
<path d="M254.995 54.0646C255.175 59.8906 250.793 64.2254 246.401 65.3985C239.568 67.2278 233.005 62.9528 231.614 56.5303C230.274 50.3463 234.095 44.1525 240.338 42.6214C247.011 40.981 253.524 45.2162 254.815 51.7481C254.965 52.5037 254.935 53.2892 254.985 54.0646H254.995ZM252.614 54.0448C252.634 48.865 248.332 44.7092 243.239 44.6993C238.077 44.6794 233.795 48.9047 233.795 54.0547C233.795 59.0555 237.907 63.4201 243.249 63.4002C248.512 63.3803 252.644 59.0754 252.614 54.0448Z" fill="#E6B10F" style="fill:#E6B10F;fill:color(display-p3 0.9000 0.6929 0.0603);fill-opacity:1;"/>
<path d="M175.269 21.7233C174.578 22.2601 173.918 22.7572 173.288 23.2842C172.628 23.831 171.977 24.3877 171.347 24.9743C170.737 25.541 170.146 26.1276 169.576 26.7241C169.006 27.3206 168.456 27.937 167.865 28.5932C166.295 26.7738 164.644 25.0936 162.833 23.5824C161.032 22.0812 159.121 20.7589 157.051 19.5559C157.131 19.4167 157.181 19.3074 157.261 19.2179C159.372 16.7423 161.673 14.4756 164.194 12.4176C164.254 12.3678 164.324 12.338 164.384 12.2983C166.495 13.1433 172.868 18.6413 175.279 21.7233H175.269Z" fill="#E6B10F" style="fill:#E6B10F;fill:color(display-p3 0.9000 0.6929 0.0603);fill-opacity:1;"/>
<path d="M167.885 79.5062C169.026 80.8285 170.176 82.0514 171.417 83.1947C172.628 84.3181 173.928 85.3521 175.249 86.3364C173.818 88.5932 167.575 94.0613 164.464 95.8111C163.073 95.0157 158.141 90.1939 157.081 88.5733C157.401 88.285 157.811 88.116 158.171 87.8774C158.511 87.6487 158.871 87.4399 159.222 87.2113C159.592 86.9727 159.952 86.7142 160.312 86.4656C160.652 86.227 160.982 85.9784 161.312 85.7299C161.663 85.4615 162.013 85.193 162.353 84.9147C162.673 84.6562 162.993 84.3877 163.313 84.1193C163.644 83.831 163.974 83.5327 164.304 83.2345C164.614 82.9561 164.914 82.6678 165.204 82.3794C165.514 82.0712 165.824 81.7531 166.135 81.4349C166.425 81.1367 166.695 80.8285 166.975 80.5203C167.265 80.2021 167.555 79.8741 167.895 79.4963L167.885 79.5062Z" fill="#E6B10F" style="fill:#E6B10F;fill:color(display-p3 0.9000 0.6929 0.0603);fill-opacity:1;"/>
<path d="M194.497 41.6073C196.318 41.647 198.049 41.6073 199.77 41.6371C199.92 42.2634 199.93 43.3074 199.79 44.0132C199.6 44.0331 199.4 44.063 199.2 44.063C197.899 44.063 196.598 44.063 195.298 44.063C195.048 44.063 194.788 44.0828 194.517 44.1027C194.417 44.4408 194.457 44.749 194.457 45.0572C194.457 50.3761 194.457 55.705 194.457 61.024C194.457 62.0083 194.437 62.9826 194.427 63.9668C194.427 64.1458 194.377 64.3148 194.347 64.5335C193.567 64.5335 192.827 64.5932 192.046 64.4938C191.946 63.6189 192.006 62.7639 192.006 61.9188C192.006 61.0638 192.006 60.2088 192.006 59.3637C192.006 58.5385 192.006 57.7133 192.006 56.8881V49.2129C192.006 48.3877 192.006 47.5625 192.006 46.7374C192.006 45.8923 192.006 45.0373 192.006 44.1723C191.586 44.0232 191.196 44.1027 190.816 44.0828C190.456 44.063 190.095 44.1226 189.695 44.0232C189.615 43.2477 189.615 42.4921 189.695 41.6968C190.446 41.5775 191.176 41.7067 191.876 41.6172C192.076 41.3985 192.006 41.1599 192.006 40.9312C192.006 39.2013 192.006 37.4714 191.996 35.7415C191.976 34.1508 192.497 32.749 193.447 31.4963C194.587 29.995 196.138 29.1798 197.999 28.9312C198.459 28.8716 198.929 28.8616 199.4 28.8517C199.55 28.8517 199.7 28.9014 199.9 28.9312C199.84 29.6968 199.86 30.4325 199.74 31.2079C199.56 31.2278 199.42 31.2477 199.27 31.2576C198.909 31.2974 198.539 31.3074 198.189 31.367C195.928 31.7548 194.427 33.5443 194.447 35.831C194.447 36.686 194.467 37.5311 194.477 38.3861C194.477 39.2411 194.477 40.0961 194.477 40.9412C194.477 41.14 194.497 41.3488 194.517 41.6371L194.497 41.6073Z" fill="#E6B10F" style="fill:#E6B10F;fill:color(display-p3 0.9000 0.6929 0.0603);fill-opacity:1;"/>
<path d="M228.993 42.2237C228.993 42.8699 228.993 43.4863 228.993 44.1027C228.993 44.222 228.973 44.3513 228.953 44.5104C228.713 44.5302 228.513 44.5501 228.313 44.5501C227.372 44.5501 226.442 44.5302 225.501 44.5501C221.82 44.6595 218.988 46.2701 217.228 49.4814C214.156 55.0787 217.498 61.889 223.761 63.1118C224.421 63.2411 225.101 63.261 225.781 63.2809C226.662 63.3107 227.552 63.2809 228.433 63.2809C228.583 63.2809 228.733 63.3007 228.923 63.3206C229.053 64.0862 228.973 64.8219 228.973 65.5973C228.813 65.6371 228.663 65.6868 228.523 65.6868C227.302 65.6868 226.082 65.7067 224.861 65.6471C219.419 65.4184 214.716 61.3024 213.826 55.8741C212.746 49.3521 217.038 43.7647 222.75 42.4225C223.59 42.2237 224.441 42.1243 225.301 42.1143C226.342 42.0944 227.382 42.1143 228.423 42.1143C228.593 42.1143 228.773 42.164 228.993 42.1939V42.2237Z" fill="#E6B10F" style="fill:#E6B10F;fill:color(display-p3 0.9000 0.6929 0.0603);fill-opacity:1;"/>
<path d="M159.462 42.0248C159.662 42.7705 159.792 43.5161 159.862 44.3016C159.682 44.3712 159.542 44.4308 159.392 44.4805C157.631 45.1168 156.31 46.2701 155.35 47.8509C155.18 48.1392 155.02 48.4374 154.88 48.7456C154.509 49.5012 154.329 50.2767 154.339 51.1317C154.369 55.2378 154.349 59.3538 154.349 63.4598V64.3148C153.939 64.5037 153.539 64.4142 153.169 64.4242C152.779 64.4341 152.398 64.4242 151.978 64.4242C151.948 64.2253 151.908 64.0861 151.898 63.937C151.888 63.7581 151.898 63.5791 151.898 63.3902C151.898 56.9776 151.898 50.565 151.898 44.1624C151.898 43.8542 151.908 43.5559 151.918 43.2079C152.729 43.0986 153.489 43.1383 154.279 43.1781C154.439 43.7448 154.279 44.3016 154.389 44.8384C154.649 44.8881 154.75 44.6595 154.88 44.5302C155.91 43.5161 157.101 42.7407 158.461 42.2436C158.771 42.1342 159.081 41.9851 159.472 42.0348L159.462 42.0248Z" fill="#E6B10F" style="fill:#E6B10F;fill:color(display-p3 0.9000 0.6929 0.0603);fill-opacity:1;"/>
<path d="M38.037 43.3173C38.8874 43.2775 39.6277 43.2775 40.3981 43.3173C40.5181 43.8939 40.3981 44.4408 40.4781 44.9577C40.6982 45.0671 40.7683 44.8881 40.8683 44.7887C41.8888 43.7647 43.0593 42.9693 44.4099 42.4524C44.7501 42.3231 45.1002 42.2336 45.4304 42.1243C45.7305 42.6512 45.7705 42.85 45.9506 44.4308C45.8506 44.4805 45.7505 44.5402 45.6304 44.5899C43.3894 45.3753 41.8788 46.9263 40.9183 49.0439C40.5982 49.7597 40.4281 50.4855 40.4381 51.2908C40.4681 55.3968 40.4481 59.5029 40.4381 63.6089C40.4381 63.8873 40.4981 64.1756 40.3481 64.4838C39.6177 64.5733 38.8774 64.5534 38.0971 64.4938C38.067 64.3148 38.037 64.1657 38.027 64.0166C38.017 63.8376 38.027 63.6587 38.027 63.4698C38.027 57.087 38.027 50.7142 38.027 44.3314V43.3074L38.037 43.3173Z" fill="#E6B10F" style="fill:#E6B10F;fill:color(display-p3 0.9000 0.6929 0.0603);fill-opacity:1;"/>
<path d="M204.852 43.0588H207.063C207.093 43.208 207.143 43.3571 207.153 43.4963C207.173 43.6752 207.153 43.8542 207.153 44.0431C207.153 50.5849 207.153 57.1168 207.153 63.6587C207.153 63.9669 207.203 64.2751 207.093 64.5634C206.473 64.6827 205.532 64.6827 204.792 64.5733C204.772 64.4441 204.742 64.2949 204.732 64.1458C204.722 63.9669 204.732 63.7879 204.732 63.599C204.732 57.087 204.732 50.575 204.732 44.063C204.732 43.7349 204.652 43.3869 204.852 43.0588Z" fill="#E6B10F" style="fill:#E6B10F;fill:color(display-p3 0.9000 0.6929 0.0603);fill-opacity:1;"/>
<path d="M175.529 35.652C178.02 33.6935 180.441 31.7846 182.892 29.8658C183.292 30.0746 183.473 30.4623 183.733 30.7705C183.983 31.0588 184.243 31.3471 184.413 31.6752C183.973 32.1425 177.83 36.9942 177.03 37.5112C176.479 36.9743 176.039 36.348 175.529 35.652Z" fill="#E6B10F" style="fill:#E6B10F;fill:color(display-p3 0.9000 0.6929 0.0603);fill-opacity:1;"/>
<path d="M207.663 30.343C207.603 31.2974 206.793 32.0232 205.833 31.9635C204.882 31.9039 204.132 31.0787 204.192 30.1342C204.252 29.2693 204.972 28.464 206.033 28.5236C207.003 28.5833 207.713 29.3687 207.663 30.3331V30.343Z" fill="#E6B10F" style="fill:#E6B10F;fill:color(display-p3 0.9000 0.6929 0.0603);fill-opacity:1;"/>
</g>
<defs>
<clipPath id="clip0_147_1454">
<rect width="255" height="108" fill="white" style="fill:white;fill-opacity:1;"/>
</clipPath>
</defs>
</svg>
