<svg width="460" height="259" viewBox="0 0 460 259" fill="none" xmlns="http://www.w3.org/2000/svg">
<path d="M33.6083 258.093C33.6083 258.093 6.27192e-09 211.936 0 169.29C-8.2319e-09 113.317 33.6083 85.1699 33.6083 85.1699C111.833 4.89653 237.708 -0.000119937 282.24 -0.000119937C300.449 -0.000119937 317.02 4.26807 330.776 14.675C370.861 45.0046 341.394 75.7696 391.467 96.844C406.204 103.045 434.993 132.328 442.704 144.189C471.5 193.685 462.801 258.091 428.004 258.093C309.581 258.1 152.032 258.086 33.6083 258.093Z" fill="#E8ECEF" style="fill:#E8ECEF;fill:color(display-p3 0.9098 0.9255 0.9373);fill-opacity:1;"/>
<path d="M283.709 258.246H123.031V64.6764H283.709V258.246Z" fill="#FFDD8B" style="fill:#FFDD8B;fill:color(display-p3 1.0000 0.8667 0.5451);fill-opacity:1;"/>
<path d="M283.709 258.246H325.74V64.6761H283.709V258.246Z" fill="#F5D380" style="fill:#F5D380;fill:color(display-p3 0.9608 0.8275 0.5020);fill-opacity:1;"/>
<path d="M224.927 98.257H182.698V64.6768H224.927V98.257Z" fill="#FFE9B3" style="fill:#FFE9B3;fill:color(display-p3 1.0000 0.9137 0.7020);fill-opacity:1;"/>
</svg>
