<svg width="32" height="32" viewBox="0 0 32 32" fill="none" xmlns="http://www.w3.org/2000/svg">
<rect width="32" height="32" rx="16" fill="#F8F9FB" style="fill:#F8F9FB;fill:color(display-p3 0.9725 0.9765 0.9843);fill-opacity:1;"/>
<path fill-rule="evenodd" clip-rule="evenodd" d="M20.5 11.5C20.5 13.9853 18.4853 16 16 16C13.5147 16 11.5 13.9853 11.5 11.5C11.5 9.01472 13.5147 7 16 7C18.4853 7 20.5 9.01472 20.5 11.5Z" fill="#495058" style="fill:#495058;fill:color(display-p3 0.2863 0.3137 0.3451);fill-opacity:1;"/>
<path fill-rule="evenodd" clip-rule="evenodd" d="M8.125 22.75C8.125 20.2647 10.1397 18.25 12.625 18.25H19.375C21.8603 18.25 23.875 20.2647 23.875 22.75V23.875C23.875 24.4963 23.3713 25 22.75 25H9.25C8.62868 25 8.125 24.4963 8.125 23.875V22.75Z" fill="#495058" style="fill:#495058;fill:color(display-p3 0.2863 0.3137 0.3451);fill-opacity:1;"/>
</svg>
