<svg width="40" height="40" viewBox="0 0 40 40" fill="none" xmlns="http://www.w3.org/2000/svg">
<path fill-rule="evenodd" clip-rule="evenodd" d="M30 10C30 15.5228 25.5228 20 20 20C14.4772 20 10 15.5228 10 10C10 4.47715 14.4772 0 20 0C25.5228 0 30 4.47715 30 10ZM26.25 10C26.25 13.4518 23.4518 16.25 20 16.25C16.5482 16.25 13.75 13.4518 13.75 10C13.75 6.54822 16.5482 3.75 20 3.75C23.4518 3.75 26.25 6.54822 26.25 10Z" fill="#212838" style="fill:#212838;fill:color(display-p3 0.1276 0.1584 0.2200);fill-opacity:1;"/>
<path fill-rule="evenodd" clip-rule="evenodd" d="M2.5 35C2.5 29.4772 6.97715 25 12.5 25H27.5C33.0228 25 37.5 29.4772 37.5 35V37.5C37.5 38.8807 36.3807 40 35 40H5C3.61929 40 2.5 38.8807 2.5 37.5V35ZM6.25 35C6.25 31.5482 9.04822 28.75 12.5 28.75H27.5C30.9518 28.75 33.75 31.5482 33.75 35V36.25H6.25V35Z" fill="#212838" style="fill:#212838;fill:color(display-p3 0.1276 0.1584 0.2200);fill-opacity:1;"/>
</svg>
