<svg width="64" height="52" viewBox="0 0 64 52" fill="none" xmlns="http://www.w3.org/2000/svg">
<path d="M59 0H1C0.447715 0 0 0.447714 0 0.999999V47C0 47.5523 0.447714 48 0.999999 48H59C59.5523 48 60 47.5523 60 47V1C60 0.447715 59.5523 0 59 0Z" fill="#FFD54F" style="fill:#FFD54F;fill:color(display-p3 1.0000 0.8353 0.3098);fill-opacity:1;"/>
<path d="M63.4849 52H4.51505C4.37845 52 4.24745 51.9472 4.15086 51.8532C4.05426 51.7592 4 51.6317 4 51.4987V4.50129C4 4.36834 4.05426 4.24083 4.15086 4.14682C4.24745 4.05281 4.37845 4 4.51505 4H63.4849C63.6215 4 63.7525 4.05281 63.8491 4.14682C63.9457 4.24083 64 4.36834 64 4.50129V51.4987C64 51.6317 63.9457 51.7592 63.8491 51.8532C63.7525 51.9472 63.6215 52 63.4849 52ZM5.03011 49.9974C5.03011 50.5497 5.47782 50.9974 6.03011 50.9974H61.9699C62.5222 50.9974 62.9699 50.5497 62.9699 49.9974V6.00258C62.9699 5.45029 62.5222 5.00258 61.9699 5.00258H6.03011C5.47782 5.00258 5.03011 5.45029 5.03011 6.00258V49.9974Z" fill="black" style="fill:black;fill-opacity:1;"/>
<path d="M62.7617 4.42881L33.5917 27.6777C33.3728 27.8522 33.3414 28.1673 33.5217 28.3816C33.7019 28.5958 34.0256 28.628 34.2445 28.4535L63.4145 5.20462C63.6334 5.03012 63.6648 4.71499 63.4845 4.50075C63.3043 4.28652 62.9806 4.25431 62.7617 4.42881Z" fill="black" style="fill:black;fill-opacity:1;"/>
<path d="M33.5306 26.9787L5.2379 4.42978C5.01895 4.25528 4.69534 4.2875 4.51509 4.50174C4.33484 4.71597 4.36621 5.03111 4.58516 5.2056L32.8779 27.7545C33.0968 27.929 33.4204 27.8968 33.6007 27.6826C33.7809 27.4683 33.7496 27.1532 33.5306 26.9787Z" fill="black" style="fill:black;fill-opacity:1;"/>
</svg>
