<svg width="110" height="102" viewBox="0 0 110 102" fill="none" xmlns="http://www.w3.org/2000/svg">
<g clip-path="url(#clip0_147_1455)">
<path d="M63.3769 0.010011C63.4364 0.0300326 63.4859 0.0500534 63.5454 0.0600642C63.6346 0.070075 63.7239 0.0700755 63.8131 0.0800863C64.4575 0.120129 65.1018 0.150162 65.7462 0.200216C66.4501 0.26028 67.1539 0.330356 67.8479 0.420453C68.4922 0.50054 69.1267 0.600647 69.7612 0.700755C70.931 0.89096 72.1008 1.13122 73.2507 1.41152C76.5717 2.21239 79.7837 3.3436 82.8866 4.77515C87.0205 6.68721 90.8174 9.14987 94.2772 12.1331C95.1199 12.8539 95.9328 13.6047 96.7258 14.3755C96.7952 14.4456 96.8745 14.5257 96.9439 14.5957C96.9836 14.6358 96.9935 14.6858 96.9737 14.7159C96.9538 14.7359 96.934 14.7559 96.9043 14.7559C96.8448 14.7559 96.7853 14.7659 96.7258 14.7659C96.597 14.7659 96.4582 14.7659 96.3293 14.7659C88.3093 14.7659 80.2893 14.7659 72.2792 14.7659C71.8529 14.7659 71.4366 14.7159 71.0202 14.6057C69.9594 14.3254 68.8789 14.0952 67.7884 13.915C67.035 13.7849 66.2816 13.6747 65.5182 13.6047C65.0225 13.5646 64.5269 13.5046 64.0312 13.4645C63.7239 13.4445 63.4165 13.4345 63.1092 13.4245C61.9791 13.3744 60.849 13.3944 59.7188 13.4445C59.1438 13.4745 58.5788 13.5346 58.0038 13.5846C57.4784 13.6247 56.953 13.7048 56.4275 13.7749C55.456 13.915 54.4845 14.0952 53.5229 14.3054C50.6976 14.9361 48.0011 15.9072 45.4038 17.1785C44.799 17.4788 44.2042 17.7992 43.5995 18.1095C43.4607 18.1796 43.312 18.2597 43.1831 18.3198C43.0642 18.2997 43.0146 18.2196 42.9551 18.1496C42.6676 17.8192 42.3801 17.4788 42.0827 17.1385C39.525 14.2353 36.6799 11.6526 33.5373 9.41015C33.3985 9.31004 33.2597 9.19992 33.111 9.0898C33.1011 9.0898 33.1011 9.05977 33.0813 9.03975C33.1011 9.00971 33.1209 8.96967 33.1507 8.94965C33.2696 8.85955 33.3886 8.77947 33.5175 8.69938C36.8683 6.42693 40.4371 4.56492 44.234 3.1534C46.3951 2.35254 48.6058 1.70184 50.8661 1.22132C51.9962 0.981058 53.1363 0.770831 54.2862 0.600647C55.2577 0.460496 56.2392 0.330356 57.2107 0.25027C58.0633 0.170183 58.9059 0.110118 59.7585 0.0700752C59.9072 0.0700752 60.0559 0.0700755 60.1848 0C61.2455 0 62.2963 0 63.3571 0L63.3769 0.010011Z" fill="#E6B10F" style="fill:#E6B10F;fill:color(display-p3 0.9000 0.6929 0.0603);fill-opacity:1;"/>
<path d="M59.0546 101.98C58.9753 101.93 58.8861 101.92 58.8068 101.91C58.3111 101.88 57.8055 101.85 57.3099 101.8C56.7944 101.76 56.2888 101.7 55.7733 101.64C55.2875 101.58 54.8117 101.509 54.3358 101.449C53.5626 101.349 52.7992 101.209 52.0359 101.059C50.6282 100.779 49.2204 100.448 47.8425 100.048C42.7172 98.5763 37.9488 96.3339 33.5274 93.3306C33.3886 93.2405 33.2597 93.1505 33.1309 93.0503C33.1011 93.0303 33.0912 92.9803 33.0615 92.9302C33.458 92.6199 33.8744 92.3396 34.2709 92.0393C34.6774 91.7289 35.0937 91.4186 35.5002 91.0982C35.8967 90.7879 36.2833 90.4676 36.6601 90.1472C37.0566 89.8169 37.4432 89.4765 37.8298 89.1361C38.2066 88.8058 38.5734 88.4654 38.9402 88.115C39.3169 87.7546 39.6837 87.3942 40.0505 87.0339C40.4074 86.6735 40.7543 86.3131 41.0914 85.9527C41.4483 85.5723 41.7853 85.1919 42.1323 84.8015C42.4694 84.4311 42.7866 84.0406 43.0939 83.6903C43.2426 83.6602 43.3219 83.7403 43.4111 83.7904C43.9663 84.0907 44.5215 84.391 45.0865 84.6813C47.7334 86.0228 50.5092 87.0138 53.4039 87.6745C54.435 87.9148 55.4759 88.105 56.5168 88.2552C57.1711 88.3453 57.8253 88.4254 58.4895 88.4754C59.7783 88.5855 61.0671 88.6456 62.3657 88.6156C63.1588 88.5955 63.9519 88.5555 64.745 88.4854C65.3993 88.4254 66.0635 88.3553 66.7178 88.2652C67.491 88.1651 68.2543 88.0349 69.0177 87.8748C69.4341 87.7847 69.8504 87.6946 70.2668 87.6045C70.3956 87.5744 70.5245 87.5544 70.6633 87.5544C70.8715 87.5444 71.0698 87.5444 71.278 87.5444C79.5855 87.5444 87.9029 87.5444 96.2104 87.5444C96.3591 87.5444 96.5078 87.5444 96.6466 87.5544C96.6664 87.5544 96.6961 87.5845 96.706 87.6045C96.706 87.6245 96.706 87.6645 96.706 87.6846C96.6069 87.8147 96.5078 87.9448 96.3888 88.055C96.0517 88.3853 95.7048 88.7157 95.3578 89.026C94.0492 90.1773 92.6712 91.2384 91.2734 92.2795C91.0752 92.4297 90.867 92.5798 90.6687 92.72C87.9723 94.7121 85.0577 96.3439 82.0043 97.7054C79.0303 99.0268 75.9472 100.048 72.7749 100.769C71.7141 101.009 70.6534 101.219 69.5728 101.389C68.6608 101.529 67.7388 101.66 66.8268 101.75C66.0833 101.82 65.3398 101.89 64.5864 101.93C64.4575 101.93 64.3187 101.93 64.1997 102H59.0844L59.0546 101.98Z" fill="#E6B10F" style="fill:#E6B10F;fill:color(display-p3 0.9000 0.6929 0.0603);fill-opacity:1;"/>
<path d="M109.99 65.7609C109.99 65.7609 109.931 65.821 109.921 65.861C109.871 66.0312 109.841 66.2114 109.792 66.3716C107.849 72.5783 104.845 78.2043 100.771 83.2498C100.711 83.3198 100.661 83.3899 100.602 83.46C100.483 83.6102 100.324 83.6802 100.146 83.6902C100.017 83.7003 99.8783 83.6902 99.7495 83.6902C99.3529 83.6902 98.9564 83.6902 98.5598 83.6902C92.7208 83.6902 86.8718 83.6902 81.0328 83.6902C80.8742 83.6902 80.7056 83.6902 80.547 83.6902C80.4776 83.6902 80.3983 83.6502 80.3983 83.6202C80.3983 83.5501 80.4479 83.5201 80.4975 83.49C80.6263 83.4099 80.7453 83.3399 80.8742 83.2598C85.5831 80.3867 89.4791 76.6426 92.5523 72.0377C93.7419 70.2658 94.753 68.3938 95.6155 66.4416C95.7246 66.1814 95.8435 65.9311 95.9625 65.6708C96.0022 65.5907 96.0418 65.5106 96.0914 65.4406C96.1409 65.3605 96.2203 65.3104 96.3095 65.3004C96.3987 65.2804 96.4879 65.2704 96.5672 65.2704C97.2909 65.2704 98.0047 65.2704 98.7284 65.2704C98.9366 65.2704 99.1348 65.2704 99.343 65.2704C102.694 65.2704 106.035 65.2704 109.385 65.2704C109.594 65.2704 109.802 65.2504 110 65.3104V65.7509L109.99 65.7609Z" fill="#E6B10F" style="fill:#E6B10F;fill:color(display-p3 0.9000 0.6929 0.0603);fill-opacity:1;"/>
<path d="M109.99 36.6696C109.841 36.6696 109.693 36.6796 109.554 36.6896C105.232 36.6896 100.919 36.6896 96.597 36.6896C96.4384 36.6896 96.2699 36.7096 96.1212 36.6596C96.0121 36.5294 95.9725 36.3692 95.9031 36.2191C95.1596 34.4772 94.2971 32.7854 93.2958 31.1736C90.2028 26.1682 86.168 22.1139 81.2014 19.0105C81.1221 18.9605 81.0428 18.9304 80.9734 18.8704C80.904 18.8103 80.7454 18.8003 80.785 18.6702C80.8148 18.57 80.9436 18.6201 81.0229 18.6201C81.1419 18.6201 81.2609 18.6201 81.3798 18.6201C84.7108 18.6201 88.0516 18.6201 91.3825 18.6201C94.2178 18.6201 97.053 18.6201 99.8883 18.6201C100.017 18.6201 100.156 18.6201 100.285 18.6201C100.483 18.6201 100.662 18.7102 100.79 18.8504C100.899 18.9705 100.999 19.1006 101.098 19.2308C102.079 20.4721 103.001 21.7535 103.864 23.0849C106.421 27.0091 108.384 31.2237 109.792 35.6985C109.841 35.8487 109.871 36.0189 109.911 36.169C109.931 36.2191 109.96 36.2691 109.99 36.3192V36.6796V36.6696Z" fill="#E6B10F" style="fill:#E6B10F;fill:color(display-p3 0.9000 0.6929 0.0603);fill-opacity:1;"/>
<path d="M74.9162 54.5288C77.6226 54.5288 80.3191 54.5488 83.0255 54.5588C83.0948 54.5588 83.1742 54.5588 83.2435 54.5588C83.4716 54.5588 83.4716 54.6089 83.4716 54.7891C83.4716 54.9893 83.422 55.1695 83.3526 55.3497C82.6884 57.1917 81.8755 58.9636 80.8742 60.6454C79.3178 63.2582 77.3847 65.5507 75.0649 67.5128C73.0426 69.2146 70.7823 70.476 68.2544 71.2268C67.3423 71.4971 66.4105 71.6973 65.4588 71.8274C64.289 71.9876 63.1192 72.0277 61.9395 71.9776C58.3409 71.8074 54.9703 70.8664 51.8476 69.0344C49.1114 67.4227 46.871 65.2804 45.0965 62.6375C43.4013 60.1148 42.2216 57.3819 41.5772 54.3986C41.3789 53.4977 41.2302 52.5967 41.1311 51.6757C41.0121 50.6246 40.9626 49.5734 40.9824 48.5223C40.9923 47.8216 41.0518 47.1308 41.1311 46.4401C41.2401 45.3889 41.4285 44.3578 41.6763 43.3367C42.6082 39.5727 44.4323 36.3292 47.1981 33.6363C48.8339 32.0445 50.7075 30.8132 52.7794 29.8922C54.316 29.2115 55.9121 28.711 57.5577 28.3606C58.44 28.1704 59.3223 28.0402 60.2145 27.9601C61.1762 27.87 62.1477 27.83 63.1192 27.87C66.3411 28.0002 69.3647 28.8811 72.1801 30.4628C73.6176 31.2737 74.9559 32.2448 76.2149 33.3159C77.1567 34.1268 78.0489 34.9777 78.8915 35.8887C78.9312 35.9287 78.9808 35.9688 79.0105 36.0188C79.0303 36.0489 79.0402 36.1089 79.0105 36.139C78.951 36.2391 78.8915 36.3492 78.8122 36.4293C78.3165 36.9598 77.8209 37.4804 77.3252 38.001C77.3054 38.021 77.2856 38.051 77.2558 38.051C77.2162 38.051 77.1666 38.061 77.1369 38.051C77.0774 38.011 77.0278 37.9609 76.9683 37.9109C76.6908 37.6406 76.4132 37.3803 76.1455 37.11C75.2037 36.189 74.2322 35.3081 73.1814 34.5172C71.7637 33.4461 70.247 32.5551 68.6013 31.8944C67.3919 31.4139 66.1527 31.0735 64.864 30.8833C63.833 30.7331 62.7921 30.6631 61.7412 30.7031C60.968 30.7431 60.1848 30.8132 59.4215 30.9233C58.6185 31.0435 57.8254 31.1936 57.0422 31.3938C54.6729 32.0045 52.482 33.0256 50.5192 34.5072C48.3779 36.1189 46.7719 38.1611 45.6318 40.5938C44.8982 42.1755 44.3728 43.8172 44.0754 45.5391C43.8276 46.9606 43.7383 48.3922 43.8077 49.8337C43.8969 51.6357 44.1646 53.3976 44.6603 55.1294C45.6616 58.6132 47.4559 61.6064 50.0532 64.1091C52.1251 66.1213 54.5639 67.4928 57.3198 68.3036C58.331 68.604 59.3719 68.8142 60.4227 68.9543C61.5925 69.1145 62.7623 69.1646 63.942 69.0945C65.9148 68.9744 67.7983 68.4938 69.5828 67.6529C71.1491 66.9121 72.5667 65.9411 73.8555 64.7798C75.0947 63.6787 76.1752 62.4273 77.1468 61.0859C77.9002 60.0447 78.5743 58.9536 79.179 57.8123C79.2385 57.6922 79.2881 57.5721 79.3377 57.4519C79.3377 57.4419 79.3178 57.3919 79.298 57.3919C79.2286 57.3819 79.1493 57.3719 79.0799 57.3719C78.4752 57.3719 77.8804 57.3719 77.2756 57.3618C75.3227 57.3518 73.3697 57.3318 71.4168 57.3218C69.9496 57.3218 68.4824 57.3018 67.0152 57.3018C66.8665 57.3018 66.7178 57.3018 66.579 57.3018C66.351 57.3018 66.3014 57.2918 66.3014 57.0215C66.3014 56.2607 66.3014 55.5098 66.3014 54.749C66.3014 54.709 66.3014 54.6589 66.3014 54.6189C66.3113 54.4988 66.3708 54.4687 66.4799 54.4687C66.5394 54.4687 66.5988 54.4687 66.6583 54.4687C67.6992 54.4687 68.7401 54.4687 69.7811 54.4787C70.6435 54.4787 71.5159 54.4887 72.3784 54.4988C73.2111 54.4988 74.0538 54.5088 74.8865 54.5188L74.9162 54.5288Z" fill="#E6B10F" style="fill:#E6B10F;fill:color(display-p3 0.9000 0.6929 0.0603);fill-opacity:1;"/>
<path d="M31.2077 70.426C31.2077 70.426 31.1482 70.506 31.1085 70.5261C31.0391 70.5561 30.9697 70.5861 30.9003 70.6062C30.2361 70.8464 29.5818 71.0967 28.9176 71.3369C28.8185 71.367 28.7194 71.397 28.6401 71.417C28.5409 71.3369 28.5112 71.2368 28.4814 71.1367C28.184 70.3158 27.8866 69.495 27.5892 68.6741C25.2893 62.3172 22.9894 55.9503 20.6895 49.5935C18.9943 44.9185 17.3089 40.2434 15.6137 35.5584C15.5443 35.3782 15.475 35.198 15.3957 35.0278C15.3957 35.0278 15.3758 35.0178 15.356 35.0178C15.3461 35.0178 15.3163 35.0178 15.3163 35.0178C15.2668 35.1279 15.2172 35.228 15.1776 35.3381C14.9198 36.0789 14.6621 36.8197 14.4043 37.5605C11.9953 44.468 9.59625 51.3754 7.18727 58.2829C5.72008 62.5074 4.24299 66.722 2.77579 70.9465C2.59735 71.4671 2.64691 71.4471 2.15124 71.2669C1.49695 71.0366 0.852572 70.8064 0.198282 70.5661C0.148714 70.5461 0.0892298 70.5161 0.0396624 70.486C0.0198354 70.476 0 70.436 0 70.4059C0.00991348 70.3359 0.0297586 70.2658 0.0495856 70.1957C0.307336 69.4549 0.565085 68.7141 0.822836 67.9733C3.2219 61.0859 5.62097 54.1884 8.02003 47.301C10.31 40.7339 12.6 34.1569 14.8801 27.5898C14.9099 27.5097 14.9495 27.4196 14.9694 27.3395C15.0288 27.0792 15.1974 27.0592 15.4452 27.0692C15.465 27.0692 15.5047 27.0992 15.5146 27.1193C15.5543 27.1994 15.5939 27.2794 15.6237 27.3595C16.0301 28.4907 16.4366 29.612 16.8529 30.7432C19.1826 37.1901 21.5123 43.6271 23.8519 50.074C26.2509 56.7112 28.65 63.3583 31.059 69.9955C31.1085 70.1356 31.1581 70.2758 31.2077 70.4159V70.426Z" fill="#E6B10F" style="fill:#E6B10F;fill:color(display-p3 0.9000 0.6929 0.0603);fill-opacity:1;"/>
<path d="M33.0119 26.909C32.9326 26.889 32.8929 26.8289 32.8433 26.7689C32.6352 26.5186 32.427 26.2783 32.2089 26.0281C29.6215 23.0949 26.6573 20.6222 23.3066 18.6201C23.1777 18.55 23.0389 18.4899 22.9497 18.3698C22.9497 18.2697 23.0191 18.2096 23.0786 18.1396C23.4454 17.7191 23.8023 17.2887 24.179 16.8682C25.8345 15.0162 27.609 13.2943 29.5224 11.7126C29.5818 11.6626 29.6314 11.6225 29.6909 11.5725C29.7702 11.5124 29.8396 11.5124 29.9288 11.5725C29.9883 11.6125 30.0477 11.6526 30.1171 11.6926C31.624 12.7037 33.0713 13.7949 34.4493 14.9661C36.2932 16.5378 38.0083 18.2397 39.5944 20.0717C39.6638 20.1517 39.7332 20.2318 39.7927 20.3119C39.8819 20.422 39.872 20.4821 39.763 20.5722C39.5746 20.7123 39.3862 20.8525 39.1979 21.0027C37.0268 22.6644 35.0541 24.5465 33.2795 26.6387C33.2002 26.7288 33.1209 26.8089 33.0416 26.899C33.0416 26.899 33.0119 26.909 33.002 26.909H33.0119Z" fill="#E6B10F" style="fill:#E6B10F;fill:color(display-p3 0.9000 0.6929 0.0603);fill-opacity:1;"/>
<path d="M33.002 75.141C33.0813 75.151 33.121 75.2211 33.1705 75.2712C33.3589 75.4814 33.5373 75.6916 33.7257 75.9118C35.4606 77.894 37.3838 79.6759 39.4854 81.2576C39.9712 81.628 39.9712 81.5279 39.5647 81.9984C36.8187 85.1818 33.7059 87.9348 30.2262 90.2773C30.2064 90.2974 30.1767 90.3074 30.1568 90.3274C29.7999 90.5576 29.8594 90.5877 29.4728 90.2974C29.1556 90.0571 28.8483 89.7968 28.5509 89.5365C26.8854 88.0349 25.2992 86.4532 23.8023 84.7814C23.5941 84.5512 23.3958 84.3109 23.2075 84.0706C23.1183 83.9605 23.029 83.8304 22.9398 83.7103C22.9696 83.6602 22.9894 83.6202 23.029 83.6001C23.1381 83.5301 23.257 83.46 23.3661 83.3899C26.8755 81.2776 29.9685 78.6648 32.6253 75.5314C32.7343 75.4113 32.8434 75.2912 32.9524 75.1711C32.9524 75.1711 32.9822 75.161 32.9921 75.151L33.002 75.141Z" fill="#E6B10F" style="fill:#E6B10F;fill:color(display-p3 0.9000 0.6929 0.0603);fill-opacity:1;"/>
</g>
<defs>
<clipPath id="clip0_147_1455">
<rect width="110" height="102" fill="white" style="fill:white;fill-opacity:1;"/>
</clipPath>
</defs>
</svg>
