<svg width="32" height="32" viewBox="0 0 32 32" fill="none" xmlns="http://www.w3.org/2000/svg">
<rect width="32" height="32" rx="8" fill="#FFC107" style="fill:#FFC107;fill:color(display-p3 1.0000 0.7569 0.0275);fill-opacity:1;"/>
<g clip-path="url(#clip0_525_4204)">
<path fill-rule="evenodd" clip-rule="evenodd" d="M16.8359 7.73235C16.6625 7.43366 16.3442 7.25 16 7.25C15.6558 7.25 15.3375 7.43366 15.1641 7.73235L6.13183 23.2879C5.95723 23.5886 5.95599 23.9601 6.12857 24.262C6.30116 24.5639 6.62123 24.75 6.96774 24.75H25.0323C25.3788 24.75 25.6988 24.5639 25.8714 24.262C26.044 23.9601 26.0428 23.5886 25.8682 23.2879L16.8359 7.73235ZM16.9678 14.7037C16.9678 14.1668 16.5345 13.7315 16.0001 13.7315C15.4656 13.7315 15.0323 14.1668 15.0323 14.7037V17.9444C15.0323 18.4814 15.4656 18.9167 16.0001 18.9167C16.5345 18.9167 16.9678 18.4814 16.9678 17.9444V14.7037ZM16.9032 20.8611C16.9032 21.3981 16.47 21.8333 15.9355 21.8333C15.401 21.8333 14.9677 21.3981 14.9677 20.8611C14.9677 20.3242 15.401 19.8889 15.9355 19.8889C16.47 19.8889 16.9032 20.3242 16.9032 20.8611Z" fill="white" style="fill:white;fill-opacity:1;"/>
</g>
<defs>
<clipPath id="clip0_525_4204">
<rect width="20" height="20" fill="white" style="fill:white;fill-opacity:1;" transform="translate(6 6)"/>
</clipPath>
</defs>
</svg>
