<svg width="112" height="82" viewBox="0 0 112 82" fill="none" xmlns="http://www.w3.org/2000/svg">
<path fill-rule="evenodd" clip-rule="evenodd" d="M108.815 27.3638C109.367 27.3638 109.815 27.8115 109.815 28.3638V29.5456H111C111.552 29.5456 112 29.9933 112 30.5456C112 31.0979 111.552 31.5456 111 31.5456H109.815V32.7274C109.815 33.2797 109.367 33.7274 108.815 33.7274C108.262 33.7274 107.815 33.2797 107.815 32.7274V31.5456H106.629C106.077 31.5456 105.629 31.0979 105.629 30.5456C105.629 29.9933 106.077 29.5456 106.629 29.5456H107.815V28.3638C107.815 27.8115 108.262 27.3638 108.815 27.3638Z" fill="#4CAF50" style="fill:#4CAF50;fill:color(display-p3 0.2980 0.6863 0.3137);fill-opacity:1;"/>
<path fill-rule="evenodd" clip-rule="evenodd" d="M92.7673 73.4751C93.1575 73.866 93.157 74.4991 92.7662 74.8893L86.9383 80.7075C86.5479 81.0973 85.9157 81.0973 85.5253 80.7075L83.3399 78.5257C82.949 78.1355 82.9485 77.5023 83.3387 77.1115C83.7289 76.7206 84.3621 76.7201 84.7529 77.1103L86.2318 78.5868L91.3531 73.4739C91.744 73.0837 92.3771 73.0843 92.7673 73.4751Z" fill="#4CAF50" style="fill:#4CAF50;fill:color(display-p3 0.2980 0.6863 0.3137);fill-opacity:1;"/>
<path fill-rule="evenodd" clip-rule="evenodd" d="M3.94734 44.1474C4.46852 43.9647 5.03914 44.2391 5.22186 44.7603L6.15206 47.4136L9.42599 46.3241C9.95002 46.1497 10.5162 46.4331 10.6906 46.9572C10.865 47.4812 10.5815 48.0474 10.0575 48.2218L6.81382 49.3012L7.77153 52.033C7.95425 52.5542 7.67986 53.1248 7.15868 53.3075C6.6375 53.4902 6.06687 53.2158 5.88415 52.6947L4.9159 49.9328L1.31578 51.1308C0.791754 51.3052 0.225575 51.0218 0.0511871 50.4978C-0.123201 49.9737 0.16024 49.4076 0.68427 49.2332L4.25414 48.0452L3.33449 45.4219C3.15177 44.9007 3.42615 44.3301 3.94734 44.1474Z" fill="#4CAF50" style="fill:#4CAF50;fill:color(display-p3 0.2980 0.6863 0.3137);fill-opacity:1;"/>
<ellipse cx="59.2782" cy="41.4548" rx="34.2384" ry="34.1818" fill="#C8E6C9" style="fill:#C8E6C9;fill:color(display-p3 0.7843 0.9020 0.7882);fill-opacity:1;"/>
<ellipse cx="59.2782" cy="41.4547" rx="29.1391" ry="29.0909" fill="#4CAF50" style="fill:#4CAF50;fill:color(display-p3 0.2980 0.6863 0.3137);fill-opacity:1;"/>
<path fill-rule="evenodd" clip-rule="evenodd" d="M71.6206 32.7686C72.401 33.5503 72.4 34.8166 71.6183 35.597L57.0487 50.1425C56.2679 50.922 55.0034 50.922 54.2226 50.1425L48.3948 44.3243C47.6131 43.5439 47.6121 42.2776 48.3925 41.4959C49.1729 40.7142 50.4392 40.7131 51.2209 41.4935L55.6357 45.901L68.7922 32.7663C69.5739 31.9859 70.8402 31.9869 71.6206 32.7686Z" fill="white" style="fill:white;fill-opacity:1;"/>
<path fill-rule="evenodd" clip-rule="evenodd" d="M44.7085 5.27273C45.6187 5.27273 46.3509 4.53698 46.3509 3.63636C46.3509 2.73574 45.6187 2 44.7085 2C43.7984 2 43.0662 2.73574 43.0662 3.63636C43.0662 4.53698 43.7984 5.27273 44.7085 5.27273ZM44.7085 7.27273C46.7202 7.27273 48.3509 5.64467 48.3509 3.63636C48.3509 1.62806 46.7202 0 44.7085 0C42.6969 0 41.0662 1.62806 41.0662 3.63636C41.0662 5.64467 42.6969 7.27273 44.7085 7.27273Z" fill="#4CAF50" style="fill:#4CAF50;fill:color(display-p3 0.2980 0.6863 0.3137);fill-opacity:1;"/>
<path d="M27.2251 73.4548C27.2251 74.6598 26.2467 75.6366 25.0397 75.6366C23.8327 75.6366 22.8542 74.6598 22.8542 73.4548C22.8542 72.2498 23.8327 71.2729 25.0397 71.2729C26.2467 71.2729 27.2251 72.2498 27.2251 73.4548Z" fill="#4CAF50" style="fill:#4CAF50;fill:color(display-p3 0.2980 0.6863 0.3137);fill-opacity:1;"/>
</svg>
