<svg width="32" height="32" viewBox="0 0 32 32" fill="none" xmlns="http://www.w3.org/2000/svg">
<rect width="32" height="32" rx="8" fill="#42A5F5" style="fill:#42A5F5;fill:color(display-p3 0.2588 0.6471 0.9608);fill-opacity:1;"/>
<g clip-path="url(#clip0_525_4145)">
<path fill-rule="evenodd" clip-rule="evenodd" d="M16 26C21.5228 26 26 21.5228 26 16C26 10.4772 21.5228 6 16 6C10.4772 6 6 10.4772 6 16C6 21.5228 10.4772 26 16 26ZM16.7372 11.1945C16.5474 11.0677 16.3244 11 16.0962 11C15.7901 11 15.4966 11.1216 15.2803 11.338C15.0639 11.5543 14.9423 11.8478 14.9423 12.1538C14.9423 12.3821 15.01 12.6051 15.1368 12.7949C15.2636 12.9846 15.4438 13.1325 15.6546 13.2199C15.8654 13.3072 16.0974 13.33 16.3213 13.2855C16.5451 13.241 16.7507 13.1311 16.912 12.9697C17.0734 12.8084 17.1833 12.6028 17.2278 12.379C17.2723 12.1551 17.2495 11.9231 17.1622 11.7123C17.0748 11.5015 16.9269 11.3212 16.7372 11.1945ZM16.2885 21.7692H17.0577C17.2617 21.7692 17.4574 21.6882 17.6016 21.5439C17.7459 21.3997 17.8269 21.204 17.8269 21C17.8269 20.796 17.7459 20.6003 17.6016 20.4561C17.4574 20.3118 17.2617 20.2308 17.0577 20.2308V15.6154C17.0577 15.4114 16.9766 15.2157 16.8324 15.0715C16.6881 14.9272 16.4925 14.8462 16.2885 14.8462H15.5192C15.3152 14.8462 15.1196 14.9272 14.9753 15.0715C14.831 15.2157 14.75 15.4114 14.75 15.6154C14.75 15.8194 14.831 16.0151 14.9753 16.1593C15.1196 16.3036 15.3152 16.3846 15.5192 16.3846V21C15.5192 21.204 15.6003 21.3997 15.7445 21.5439C15.8888 21.6882 16.0844 21.7692 16.2885 21.7692Z" fill="white" style="fill:white;fill-opacity:1;"/>
</g>
<defs>
<clipPath id="clip0_525_4145">
<rect width="20" height="20" fill="white" style="fill:white;fill-opacity:1;" transform="translate(6 6)"/>
</clipPath>
</defs>
</svg>
