<?xml version="1.0" standalone="no"?>
<!DOCTYPE svg PUBLIC "-//W3C//DTD SVG 1.1//EN" "http://www.w3.org/Graphics/SVG/1.1/DTD/svg11.dtd" >
<svg xmlns="http://www.w3.org/2000/svg">
<metadata>Generated by IcoMoon</metadata>
<defs>
<font id="icomoon" horiz-adv-x="1024">
<font-face units-per-em="1024" ascent="960" descent="-64" />
<missing-glyph horiz-adv-x="1024" />
<glyph unicode="&#x20;" horiz-adv-x="512" d="" />
<glyph unicode="&#xe900;" glyph-name="actualizar" d="M585.078 959.49c-27.089 3.911-52.19-15.082-56.065-42.421s14.944-52.672 42.033-56.582c200.051-28.879 353.855-202.599 353.855-412.487 0-136.275-64.819-257.344-165.158-333.408v166.726c0 27.616-22.189 50.003-49.549 50.003-27.366 0-49.549-22.387-49.549-50.003v-253.997c-0.019-0.768-0.019-1.542 0-2.317v-10.381c0-27.616 22.182-50.010 49.549-50.010h264.256c27.366 0 49.549 22.394 49.549 50.010s-22.182 50.003-49.549 50.003h-119.174c103.578 94.522 168.723 231.245 168.723 383.373 0 260.357-190.752 475.665-438.922 511.49zM168.726 831.373h-119.177c-27.365 0-49.548 22.388-49.548 50.005s22.184 50.005 49.548 50.005h264.258c27.364 0 49.548-22.388 49.548-50.005v-10.464c0.015-0.72 0.015-1.439 0-2.157v-254.073c0-27.617-22.184-50.005-49.548-50.005s-49.549 22.388-49.549 50.005v166.725c-100.342-76.063-165.161-197.13-165.161-333.409 0-209.888 153.802-383.61 353.855-412.486 27.089-3.91 45.908-29.242 42.033-56.582s-28.976-46.33-56.065-42.419c-248.168 35.821-438.92 251.13-438.92 511.488 0 152.13 65.143 288.85 168.726 383.373z" />
<glyph unicode="&#xe901;" glyph-name="administrador" d="M448 448c-141.385 0-256 114.615-256 256s114.615 256 256 256c141.385 0 256-114.615 256-256s-114.615-256-256-256zM448 544c88.365 0 160 71.635 160 160s-71.635 160-160 160c-88.365 0-160-71.635-160-160s71.635-160 160-160zM96 80c0 79.526 64.471 144 144 144h160c26.509 0 48 21.491 48 48s-21.491 48-48 48h-160c-132.548 0-240-107.45-240-240v-32c0-61.856 50.144-112 112-112h288c26.509 0 48 21.491 48 48s-21.491 48-48 48h-288c-8.836 0-16 7.162-16 16v32zM665.6 198.4c0 53.018 42.982 96 96 96 53.024 0 96-42.982 96-96s-42.976-96-96-96c-53.018 0-96 42.982-96 96zM761.6 253.978c-30.694 0-55.578-24.883-55.578-55.578s24.883-55.578 55.578-55.578c30.694 0 55.578 24.883 55.578 55.578s-24.883 55.578-55.578 55.578zM727.398 458.586c11.27 1.481 22.675 2.214 34.214 2.214 13.107 0 26.035-0.945 38.778-2.855 12.243-1.835 22.406-10.403 26.285-22.156l11.501-34.84c5.427-2.051 10.746-4.316 15.955-6.785l33.024 15.923c11.155 5.38 24.397 4.015 34.221-3.53 19.373-14.877 36.608-32.413 51.155-52.052 7.373-9.96 8.506-23.227 2.925-34.292l-16.512-32.717c2.381-5.261 4.544-10.618 6.496-16.070l34.618-12.058c11.706-4.077 20.109-14.406 21.728-26.694 3.194-24.25 2.976-48.826-0.64-73.018-1.83-12.243-10.4-22.419-22.157-26.298l-34.861-11.507c-2.048-5.402-4.307-10.714-6.778-15.93l15.936-33.043c5.382-11.155 4.019-24.39-3.526-34.214-14.88-19.398-32.41-36.621-52.064-51.168-9.958-7.373-23.219-8.499-34.285-2.918l-32.717 16.506c-5.267-2.387-10.63-4.557-16.077-6.509l-12.051-34.598c-4.077-11.706-14.406-20.115-26.694-21.728-24.25-3.194-48.826-2.976-73.018 0.634-12.243 1.83-22.419 10.4-26.298 22.163l-11.507 34.861c-5.402 2.042-10.714 4.301-15.93 6.771l-33.044-15.93c-11.156-5.382-24.39-4.019-34.215 3.52-19.398 14.886-36.62 32.41-51.165 52.064-7.371 9.965-8.5 23.226-2.919 34.291l16.517 32.736c-2.378 5.267-4.545 10.618-6.495 16.058l-34.643 12.090c-11.697 4.083-20.095 14.406-21.711 26.688-3.188 24.237-2.974 48.8 0.637 72.979 1.829 12.25 10.399 22.426 22.159 26.304l34.84 11.501c2.051 5.427 4.316 10.746 6.785 15.955l-15.923 33.023c-5.379 11.155-4.016 24.39 3.524 34.215 14.886 19.398 32.411 36.62 52.065 51.165 9.96 7.372 23.223 8.501 34.286 2.92l32.713-16.504c5.274 2.387 10.643 4.559 16.090 6.509l12.083 34.616c4.083 11.699 14.406 20.098 26.694 21.712zM755.61 395.113l-10.483-30.036c-3.59-10.272-12.032-18.098-22.547-20.892-11.891-3.159-23.341-7.793-34.080-13.793-9.51-5.314-21.043-5.557-30.771-0.65l-28.426 14.341c-3.812-3.463-7.487-7.075-11.016-10.827l13.837-28.693c4.73-9.811 4.283-21.325-1.192-30.739-6.116-10.515-10.978-21.875-14.392-33.837-2.981-10.445-10.943-18.739-21.259-22.144l-30.25-9.984c-0.247-5.146-0.292-10.298-0.135-15.443l30.059-10.49c10.248-3.578 18.062-11.994 20.873-22.477 3.198-11.93 7.848-23.418 13.848-34.214 5.279-9.504 5.509-20.998 0.614-30.707l-14.342-28.429c3.464-3.808 7.075-7.482 10.827-11.014l28.696 13.837c9.786 4.717 21.274 4.288 30.682-1.158 10.682-6.182 22.080-11.034 33.946-14.438 10.419-2.995 18.694-10.944 22.093-21.248l9.984-30.246c5.152-0.25 10.31-0.294 15.462-0.141l10.464 30.048c3.584 10.278 12.032 18.112 22.554 20.909 11.891 3.155 23.334 7.789 34.080 13.792 9.51 5.312 21.043 5.555 30.771 0.646l28.422-14.336c3.814 3.462 7.488 7.072 11.021 10.822l-13.837 28.698c-4.723 9.786-4.288 21.274 1.158 30.682 6.182 10.682 11.034 22.080 14.438 33.946 2.995 10.419 10.944 18.694 21.242 22.093l30.253 9.984c0.25 5.152 0.294 10.31 0.134 15.462l-30.042 10.464c-10.253 3.571-18.074 11.981-20.89 22.47-3.27 12.179-7.878 23.539-13.811 34.157-5.318 9.517-5.562 21.043-0.653 30.771l14.342 28.426c-3.469 3.812-7.078 7.489-10.829 11.019l-28.691-13.834c-9.811-4.73-21.325-4.283-30.739 1.192-10.515 6.116-21.875 10.978-33.837 14.392-10.445 2.982-18.739 10.943-22.144 21.26l-9.978 30.231c-3.123 0.146-6.272 0.219-9.453 0.219-2.010 0-4.013-0.029-6.003-0.088z" />
<glyph unicode="&#xe902;" glyph-name="advertencia" d="M512 564.148c27.365 0 49.548-22.287 49.548-49.778v-165.926c0-27.491-22.183-49.775-49.548-49.775s-49.548 22.284-49.548 49.775v165.926c0 27.491 22.183 49.778 49.548 49.778zM508.694 149.331c27.364 0 49.548 22.291 49.548 49.779 0 27.494-22.184 49.779-49.548 49.779s-49.549-22.285-49.549-49.779c0-27.488 22.184-49.779 49.549-49.779zM512 896c17.623 0 33.919-9.404 42.799-24.696l462.449-796.443c8.941-15.398 9.005-34.419 0.166-49.875-8.832-15.456-25.222-24.986-42.963-24.986h-924.903c-17.742 0-34.129 9.53-42.966 24.986s-8.773 34.477 0.167 49.875l462.452 796.443c8.879 15.293 25.176 24.696 42.799 24.696zM888.186 99.558l-376.186 647.873-376.186-647.873h752.372z" />
<glyph unicode="&#xe903;" glyph-name="agregar" d="M560 640c0 26.509-21.491 48-48 48s-48-21.491-48-48v-144h-144c-26.509 0-48-21.491-48-48s21.491-48 48-48h144v-144c0-26.509 21.491-48 48-48s48 21.491 48 48v144h144c26.509 0 48 21.491 48 48s-21.491 48-48 48h-144v144zM1024 448c0 282.77-229.229 512-512 512s-512-229.23-512-512c0-282.771 229.23-512 512-512s512 229.229 512 512zM928 448c0-229.754-186.246-416-416-416-229.75 0-416 186.246-416 416 0 229.75 186.25 416 416 416 229.754 0 416-186.25 416-416z" />
<glyph unicode="&#xe904;" glyph-name="angulo-abajo" d="M210.745 621.255c24.994 24.993 65.516 24.993 90.51 0l210.745-210.746 210.746 210.746c24.992 24.993 65.517 24.993 90.509 0s24.992-65.516 0-90.51l-255.999-255.999c-24.994-24.992-65.516-24.992-90.51 0l-256 255.999c-24.993 24.994-24.993 65.516 0 90.51z" />
<glyph unicode="&#xe905;" glyph-name="angulo-arriba" d="M210.745 274.746c24.994-24.992 65.516-24.992 90.51 0l210.745 210.745 210.746-210.745c24.992-24.992 65.517-24.992 90.509 0s24.992 65.516 0 90.509l-255.999 256c-24.994 24.993-65.516 24.993-90.51 0l-256-256c-24.993-24.994-24.993-65.517 0-90.509z" />
<glyph unicode="&#xe906;" glyph-name="angulo-derecho" d="M338.745 749.255c-24.993-24.994-24.993-65.516 0-90.51l210.746-210.745-210.746-210.746c-24.993-24.992-24.993-65.517 0-90.509s65.516-24.992 90.51 0l255.999 255.999c24.992 24.994 24.992 65.516 0 90.51l-255.999 256c-24.994 24.993-65.516 24.993-90.51 0z" />
<glyph unicode="&#xe907;" glyph-name="angulo-doble-abajo" d="M301.255 813.255c-24.994 24.993-65.516 24.993-90.51 0s-24.993-65.516 0-90.51l256-256c24.994-24.993 65.516-24.993 90.51 0l255.999 256c24.992 24.994 24.992 65.516 0 90.51s-65.517 24.993-90.509 0l-210.746-210.746-210.745 210.746zM301.255 429.255c-24.994 24.993-65.516 24.993-90.51 0s-24.993-65.516 0-90.51l256-255.999c24.994-24.992 65.516-24.992 90.51 0l255.999 255.999c24.992 24.994 24.992 65.516 0 90.51s-65.517 24.993-90.509 0l-210.746-210.746-210.745 210.746z" />
<glyph unicode="&#xe908;" glyph-name="angulo-doble-arriba" d="M301.255 466.745c-24.994-24.993-65.516-24.993-90.51 0s-24.993 65.516 0 90.51l256 256c24.994 24.993 65.516 24.993 90.51 0l255.999-256c24.992-24.994 24.992-65.516 0-90.51s-65.517-24.993-90.509 0l-210.746 210.746-210.745-210.746zM301.255 82.746c-24.994-24.992-65.516-24.992-90.51 0s-24.993 65.517 0 90.509l256 256.001c24.994 24.993 65.516 24.993 90.51 0l255.999-256.001c24.992-24.992 24.992-65.517 0-90.509s-65.517-24.992-90.509 0l-210.746 210.746-210.745-210.746z" />
<glyph unicode="&#xe909;" glyph-name="angulo-doble-derecho" d="M146.745 658.745c-24.993 24.994-24.993 65.516 0 90.51s65.516 24.993 90.51 0l256-256c24.993-24.994 24.993-65.516 0-90.51l-256-255.999c-24.994-24.992-65.516-24.992-90.51 0s-24.993 65.517 0 90.509l210.746 210.746-210.746 210.745zM530.745 658.745c-24.993 24.994-24.993 65.516 0 90.51s65.516 24.993 90.51 0l255.999-256c24.992-24.994 24.992-65.516 0-90.51l-255.999-255.999c-24.994-24.992-65.516-24.992-90.51 0s-24.993 65.517 0 90.509l210.746 210.746-210.746 210.745z" />
<glyph unicode="&#xe90a;" glyph-name="angulo-doble-izquierdo" d="M493.255 658.745c24.993 24.994 24.993 65.516 0 90.51s-65.516 24.993-90.51 0l-256-256c-24.993-24.994-24.993-65.516 0-90.51l256-255.999c24.994-24.992 65.516-24.992 90.51 0s24.993 65.517 0 90.509l-210.746 210.746 210.746 210.745zM877.254 658.745c24.992 24.994 24.992 65.516 0 90.51s-65.517 24.993-90.509 0l-256.001-256c-24.993-24.994-24.993-65.516 0-90.51l256.001-255.999c24.992-24.992 65.517-24.992 90.509 0s24.992 65.517 0 90.509l-210.746 210.746 210.746 210.745z" />
<glyph unicode="&#xe90b;" glyph-name="angulo-izquierdo" d="M685.254 749.255c24.992-24.994 24.992-65.516 0-90.51l-210.745-210.745 210.745-210.746c24.992-24.992 24.992-65.517 0-90.509s-65.516-24.992-90.509 0l-256 255.999c-24.993 24.994-24.993 65.516 0 90.51l256 256c24.994 24.993 65.517 24.993 90.509 0z" />
<glyph unicode="&#xe90c;" glyph-name="articulos" d="M428.8 844.8h166.4v38.4h-166.4v-38.4zM352 896c0 35.346 28.654 64 64 64h192c35.347 0 64-28.654 64-64v-64c0-35.346-28.653-64-64-64h-192c-35.346 0-64 28.654-64 64v64zM361.601 477.16l-0.001-435.56h300.8v435.56c0 85.457-69.184 153.24-150.399 153.24s-150.4-67.782-150.4-153.24zM256.001 477.16c0 142.954 115.641 258.84 255.999 258.84s255.999-115.887 255.999-258.84v-498.017c0-23.827-18.963-43.142-42.355-43.142h-427.288c-23.393 0-42.357 19.315-42.357 43.142l0.001 498.017z" />
<glyph unicode="&#xe90d;" glyph-name="aviso" d="M512 752c26.509 0 48-21.491 48-48v-320c0-26.509-21.491-48-48-48s-48 21.491-48 48v320c0 26.509 21.491 48 48 48zM560 240c0-26.509-21.491-48-48-48s-48 21.491-48 48c0 26.509 21.491 48 48 48s48-21.491 48-48zM1024 448c0 282.77-229.229 512-512 512s-512-229.23-512-512c0-282.771 229.23-512 512-512s512 229.229 512 512zM928 448c0-229.754-186.246-416-416-416-229.75 0-416 186.246-416 416 0 229.75 186.25 416 416 416 229.754 0 416-186.25 416-416z" />
<glyph unicode="&#xe90e;" glyph-name="buscar" d="M683.469 208.646l194.592-194.586c18.746-18.746 49.133-18.746 67.878 0s18.746 49.133 0 67.878l-194.586 194.592c50.547 65.023 80.646 146.731 80.646 235.469 0 212.077-171.923 384-384 384s-384-171.923-384-384c0-212.077 171.923-384 384-384 88.738 0 170.446 30.099 235.469 80.646zM736 512c0-159.058-128.942-288-288-288s-288 128.942-288 288c0 159.058 128.942 288 288 288s288-128.942 288-288z" />
<glyph unicode="&#xe90f;" glyph-name="calendario" d="M288 960c26.509 0 48-21.49 48-48v-80h352v80c0 26.51 21.491 48 48 48s48-21.49 48-48v-80h144c53.018 0 96-42.98 96-96v-704c0-53.018-42.982-96-96-96h-832c-53.019 0-96 42.982-96 96v704c0 53.020 42.981 96 96 96h144v80c0 26.51 21.491 48 48 48zM928 736h-832v-96h832v96zM928 544h-832v-512h832v512z" />
<glyph unicode="&#xe910;" glyph-name="cancelar" d="M353.941 673.941c-18.745 18.745-49.137 18.745-67.882 0s-18.745-49.137 0-67.882l158.059-158.059-158.059-158.061c-18.745-18.746-18.745-49.133 0-67.878s49.137-18.746 67.882 0l158.059 158.057 158.061-158.057c18.746-18.746 49.133-18.746 67.878 0s18.746 49.133 0 67.878l-158.057 158.061 158.057 158.059c18.746 18.745 18.746 49.137 0 67.882s-49.133 18.745-67.878 0l-158.061-158.059-158.059 158.059zM1024 448c0 282.77-229.229 512-512 512s-512-229.23-512-512c0-282.771 229.23-512 512-512s512 229.229 512 512zM928 448c0-229.754-186.246-416-416-416-229.75 0-416 186.246-416 416 0 229.75 186.25 416 416 416 229.754 0 416-186.25 416-416z" />
<glyph unicode="&#xe911;" glyph-name="candado" d="M512 448c-88.365 0-160-71.635-160-160s71.635-160 160-160c88.365 0 160 71.635 160 160s-71.635 160-160 160zM439.273 288c0 40.166 32.561 72.727 72.727 72.727s72.727-32.561 72.727-72.727c0-40.166-32.561-72.73-72.727-72.73s-72.727 32.563-72.727 72.73zM256 704c0 141.385 114.615 256 256 256 141.382 0 256-114.615 256-256v-64h64c70.694 0 128-57.308 128-128v-448c0-70.694-57.306-128-128-128h-640c-70.692 0-128 57.306-128 128v448c0 70.692 57.308 128 128 128h64v64zM512 857.6c-84.831 0-153.6-68.769-153.6-153.6v-64h307.2v64c0 84.831-68.769 153.6-153.6 153.6zM192 544c-17.673 0-32-14.327-32-32v-448c0-17.67 14.327-32 32-32h640c17.67 0 32 14.33 32 32v448c0 17.673-14.33 32-32 32h-640z" />
<glyph unicode="&#xe912;" glyph-name="carpeta" d="M512 672h384c17.67 0 32-14.327 32-32v-512c0-17.67-14.33-32-32-32h-768c-17.673 0-32 14.33-32 32v640c0 17.673 14.327 32 32 32h216.236l99.882-99.882c18.003-18.003 42.422-28.118 67.882-28.118zM128 896c-70.692 0-128-57.308-128-128v-640c0-70.694 57.308-128 128-128h768c70.694 0 128 57.306 128 128v512c0 70.692-57.306 128-128 128h-384l-109.255 109.255c-12.002 12.002-28.281 18.745-45.254 18.745h-229.491z" />
<glyph unicode="&#xe913;" glyph-name="carpeta-zip" d="M597.333 640c-11.782 0-21.333-9.551-21.333-21.333v-85.334c0-11.782 9.551-21.333 21.333-21.333h85.336c11.782 0 21.331 9.551 21.331 21.333v85.334c0 11.782-9.549 21.333-21.331 21.333h-85.336zM725.331 512c-11.782 0-21.331-9.551-21.331-21.333v-85.334c0-11.782 9.549-21.333 21.331-21.333h85.338c11.782 0 21.331 9.551 21.331 21.333v85.334c0 11.782-9.549 21.333-21.331 21.333h-85.338zM597.333 384c-11.782 0-21.333-9.551-21.333-21.333v-85.336c0-11.782 9.551-21.331 21.333-21.331h85.336c11.782 0 21.331 9.549 21.331 21.331v85.336c0 11.782-9.549 21.333-21.331 21.333h-85.336zM725.331 256c-11.782 0-21.331-9.549-21.331-21.331v-85.338c0-11.782 9.549-21.331 21.331-21.331h85.338c11.782 0 21.331 9.549 21.331 21.331v85.338c0 11.782-9.549 21.331-21.331 21.331h-85.338zM0 768v-640c0-70.694 57.308-128 128-128h768c70.694 0 128 57.306 128 128v512c0 70.692-57.306 128-128 128h-384l-109.255 109.255c-12.002 12.002-28.281 18.745-45.254 18.745h-229.491c-70.692 0-128-57.308-128-128zM444.118 700.118c18.003-18.003 42.422-28.118 67.882-28.118h384c17.67 0 32-14.327 32-32v-512c0-17.67-14.33-32-32-32h-768c-17.673 0-32 14.33-32 32v640c0 17.673 14.327 32 32 32h216.236l99.882-99.882z" />
<glyph unicode="&#xe914;" glyph-name="carrera" d="M26.157 522.121l118.556-91.457v-171.656c0-36.544 17.832-70.797 47.772-91.75l256-179.2c38.564-26.995 89.892-26.995 128.456 0l256.001 179.2c29.939 20.954 47.77 55.206 47.77 91.75v178.892l48.006 34.564v-166.774c0-26.509 21.491-48 48-48s48 21.491 48 48v271.998c0 4.934-0.742 9.693-2.125 14.173-4.109 16.959-14.803 32.513-31.859 42.291l-438.23 251.251c-24.646 14.13-54.936 14.13-79.581 0l-439.143-251.775c-41.559-23.827-45.552-82.246-7.622-111.506zM118.938 571.793l393.775 225.764 391.486-224.453-391.99-282.23-291.132 202.126-102.14 78.793zM559.121 206.355l225.59 162.424v-109.772c0-5.222-2.547-10.112-6.822-13.107l-256-179.2c-5.509-3.859-12.842-3.859-18.351 0l-256 179.2c-4.277 2.995-6.824 7.885-6.824 13.107v103.49l226.040-156.936c27.847-19.334 64.857-19.014 92.369 0.794z" />
<glyph unicode="&#xe915;" glyph-name="celular" d="M512 64c44.183 0 80 35.814 80 80s-35.817 80-80 80c-44.183 0-80-35.814-80-80s35.817-80 80-80zM128 864v-832c0-53.018 42.98-96 96-96h576c53.018 0 96 42.982 96 96v832c0 53.019-42.982 96-96 96h-576c-53.020 0-96-42.981-96-96zM224 864h576v-832h-576v832z" />
<glyph unicode="&#xe916;" glyph-name="cerrar" d="M213.504 817.33c-19.56 19.56-51.274 19.56-70.834 0s-19.56-51.274 0-70.834l298.496-298.496-298.496-298.496c-19.56-19.558-19.56-51.277 0-70.835s51.274-19.558 70.834 0l298.496 298.497 298.496-298.497c19.558-19.558 51.277-19.558 70.835 0s19.558 51.277 0 70.835l-298.497 298.496 298.497 298.496c19.558 19.56 19.558 51.274 0 70.834s-51.277 19.56-70.835 0l-298.496-298.496-298.496 298.496z" />
<glyph unicode="&#xe917;" glyph-name="configuracion" d="M512 703.041c-50.445 0-99.757-14.959-141.701-42.987s-74.635-67.864-93.94-114.472c-19.304-46.608-24.355-97.894-14.514-147.373s34.133-94.926 69.804-130.6c35.67-35.674 81.117-59.968 130.593-69.805 49.476-9.843 100.759-4.794 147.364 14.515 46.605 19.302 86.439 51.994 114.465 93.939 28.026 41.949 42.982 91.264 42.982 141.712 0 67.649-26.867 132.527-74.701 180.362s-112.707 74.708-180.352 74.708zM512 302.214c-28.826 0-57.004 8.55-80.972 24.566s-42.648 38.78-53.679 65.412c-11.032 26.633-13.917 55.94-8.294 84.213s19.505 54.244 39.888 74.628c20.383 20.384 46.353 34.266 74.624 39.89s57.577 2.738 84.209-8.294c26.632-11.032 49.394-29.713 65.409-53.683 16.013-23.969 24.564-52.149 24.564-80.977-0.122-38.62-15.514-75.623-42.822-102.931-27.307-27.306-64.308-42.704-102.925-42.826zM1013.005 356.875l-64.224 85.631v10.931l64.224 85.631c4.883 6.664 8.23 14.326 9.805 22.437s1.338 16.47-0.698 24.477c-11.77 43.696-29.222 85.656-51.923 124.803-4.077 7.237-9.779 13.43-16.653 18.093s-14.739 7.668-22.97 8.78l-105.21 15.031-8.659 8.654-15.027 105.217c-1.114 8.233-4.115 16.095-8.781 22.972-4.659 6.875-10.854 12.576-18.093 16.655-39.142 22.701-81.101 40.158-124.794 51.925-7.994 2.168-16.381 2.474-24.514 0.895s-15.795-5.002-22.398-10.005l-85.17-63.768h-11.842l-85.171 63.768c-6.664 4.884-14.326 8.233-22.436 9.808s-16.469 1.336-24.476-0.699c-43.693-11.767-85.651-29.224-124.796-51.925-7.236-4.079-13.429-9.78-18.092-16.655s-7.668-14.739-8.78-22.972l-15.030-105.217c-3.108-2.652-6.003-5.546-8.654-8.654l-105.21-15.031c-8.232-1.112-16.095-4.117-22.97-8.78s-12.576-10.856-16.655-18.093c-22.699-39.147-40.156-81.107-51.922-124.803-2.168-7.996-2.474-16.383-0.895-24.515s5.001-15.796 10.004-22.399l64.22-85.631v-10.931l-64.22-85.631c-4.884-6.664-8.233-14.326-9.808-22.437s-1.336-16.473 0.699-24.479c11.766-43.693 29.223-85.651 51.922-124.8 4.079-7.238 9.78-13.434 16.655-18.093 6.876-4.666 14.738-7.667 22.97-8.781l105.21-15.034 8.654-8.653 15.030-105.216c1.112-8.23 4.117-16.096 8.78-22.97s10.855-12.576 18.092-16.659c39.144-22.701 81.102-40.154 124.796-51.923 4.59-1.299 9.348-1.914 14.119-1.824 11.836-0.064 23.364 3.776 32.793 10.931l85.171 63.77h11.842l85.17-63.77c6.664-4.883 14.326-8.23 22.436-9.805s16.47-1.338 24.476 0.698c43.693 11.77 85.651 29.222 124.794 51.923 7.238 4.083 13.434 9.786 18.093 16.659 4.666 6.874 7.667 14.739 8.781 22.97l15.488 105.67 7.738 7.744 105.67 15.488c8.23 1.114 16.096 4.115 22.97 8.781 6.874 4.659 12.576 10.854 16.653 18.093 22.701 39.149 40.154 81.107 51.923 124.8 2.17 8 2.47 16.385 0.896 24.517-1.581 8.133-5.005 15.796-10.003 22.399zM887.75 262.592l-97.011-14.125c-12.147-1.792-23.36-7.558-31.885-16.397-7.738-8.198-22.317-23.226-29.6-29.606-9.613-8.672-15.898-20.435-17.766-33.248l-14.118-97.018c-16.474-8.339-33.517-15.494-51.008-21.408l-78.34 59.213c-10.33 7.731-23.115 11.456-35.981 10.477h-40.081c-12.858 0.896-25.614-2.816-35.981-10.477l-78.339-59.213c-17.491 5.914-34.538 13.069-51.011 21.408l-14.119 97.018c-1.866 12.813-8.148 24.576-17.763 33.248-10.084 8.723-19.521 18.157-28.239 28.243-8.675 9.613-20.434 15.898-33.248 17.76l-97.012 14.125c-8.339 16.474-15.492 33.523-21.407 51.014l59.21 78.34c7.258 9.897 11.096 21.889 10.931 34.161-0.456 11.387-0.911 32.339-0.456 41.904 0.897 12.859-2.817 25.616-10.476 35.983l-59.21 78.343c5.914 17.492 13.068 34.54 21.407 51.014l97.012 14.12c12.814 1.866 24.573 8.149 33.248 17.764 8.717 10.084 18.155 19.522 28.239 28.239 9.614 8.675 15.896 20.436 17.763 33.251l14.119 97.018c16.474 8.339 33.521 15.493 51.011 21.407l78.339-59.212c10.33-7.734 23.115-11.456 35.981-10.476 13.208 0.455 26.872 0.455 40.081 0 12.866-0.98 25.651 2.742 35.981 10.476l78.34 59.212c17.491-5.914 34.534-13.068 51.008-21.407l14.118-97.018c1.869-12.815 8.154-24.575 17.766-33.251 10.080-8.717 19.52-18.156 28.237-28.239 8.672-9.615 20.435-15.898 33.248-17.764l97.011-14.12c8.339-16.474 15.494-33.522 21.408-51.014l-59.206-78.343c-7.322-9.842-11.021-21.908-10.477-34.161 0-11.387 0.454-32.339 0-41.904-0.979-12.867 2.739-25.653 10.477-35.983l59.206-78.34c-5.914-17.491-13.069-34.541-21.408-51.014z" />
<glyph unicode="&#xe918;" glyph-name="configuracion-pendiente" d="M281.601 703.999c0 21.208 17.192 38.4 38.4 38.4h365.714c21.21 0 38.4-17.192 38.4-38.4s-17.19-38.4-38.4-38.4c-6.445-50.275-24.947-104.556-48.525-148.061-15.054-27.779-29.967-50.158-51.221-69.539 21.235-19.452 36.197-42.097 51.238-69.914 23.286-43.059 41.884-98.129 48.508-147.684 21.21 0 38.4-17.197 38.4-38.4 0-21.21-17.19-38.4-38.4-38.4h-365.714c-21.208 0-38.4 17.19-38.4 38.4 0 21.203 17.192 38.4 38.4 38.4 6.563 49.926 25.126 104.884 48.524 148.060 15.054 27.779 29.821 50.158 51.075 69.539-21.254 19.38-36.020 41.76-51.075 69.539-23.806 43.928-42.239 97.35-48.524 148.061-21.208 0-38.4 17.192-38.4 38.4zM398.193 665.599c5.887-37.301 19.489-77.58 37.855-111.469 12.374-22.833 25.938-40.935 38.97-52.819 13.368-12.191 22.811-14.912 27.84-14.912s14.471 2.721 27.84 14.912c13.032 11.884 26.596 29.987 38.97 52.819 18.366 33.889 31.968 74.168 37.855 111.469h-209.33zM398.193 230.4h209.286c-5.908 37.037-19.485 77.229-37.828 111.155-12.387 22.909-25.966 41.105-39.017 53.061-13.402 12.276-22.823 14.982-27.776 14.982-5.029 0-14.472-2.721-27.84-14.912-13.032-11.884-26.596-29.987-38.97-52.819-18.366-33.892-31.968-74.168-37.855-111.467zM1024 448c0 282.77-229.229 512-512 512s-512-229.23-512-512c0-282.771 229.23-512 512-512s512 229.229 512 512zM928 448c0-229.754-186.246-416-416-416-229.75 0-416 186.246-416 416 0 229.75 186.25 416 416 416 229.754 0 416-186.25 416-416z" />
<glyph unicode="&#xe919;" glyph-name="confirmar" d="M748.883 582.207c17.094 21.368 13.632 52.549-7.738 69.644s-52.55 13.63-69.645-7.738l-229.674-287.094-92.985 92.984c-19.35 19.35-50.722 19.35-70.072 0s-19.35-50.722 0-70.072l132.129-132.129c9.966-9.965 23.704-15.219 37.776-14.438s27.147 7.514 35.951 18.522l264.257 330.322zM512 960c-282.77 0-512-229.23-512-512s229.23-512 512-512c282.771 0 512 229.229 512 512s-229.229 512-512 512zM99.097 448c0 228.040 184.863 412.903 412.903 412.903 228.038 0 412.902-184.863 412.902-412.903 0-228.038-184.864-412.902-412.902-412.902-228.040 0-412.903 184.864-412.903 412.902z" />
<glyph unicode="&#xe91a;" glyph-name="contrasena" d="M243.253 608c15.906 0 28.8-12.894 28.8-28.8v-61.354l41.574 27.716c13.235 8.823 31.116 5.247 39.939-7.987s5.247-31.116-7.988-39.939l-50.455-33.637 50.455-33.637c13.235-8.823 16.811-26.704 7.988-39.939s-26.704-16.81-39.939-7.987l-41.574 27.716v-61.354c0-15.906-12.894-28.8-28.8-28.8s-28.8 12.894-28.8 28.8v61.42l-41.675-27.783c-13.234-8.823-31.116-5.247-39.938 7.987s-5.247 31.116 7.987 39.939l50.456 33.637-50.456 33.637c-13.235 8.823-16.81 26.704-7.987 39.939s26.704 16.81 39.938 7.987l41.675-27.783v61.42c0 15.906 12.894 28.8 28.8 28.8zM512.050 608c15.906 0 28.8-12.894 28.8-28.8v-61.354l41.574 27.716c13.235 8.823 31.116 5.247 39.939-7.987s5.247-31.116-7.988-39.939l-50.455-33.637 50.455-33.637c13.235-8.823 16.811-26.704 7.988-39.939s-26.704-16.81-39.939-7.987l-41.574 27.716v-61.354c0-15.906-12.894-28.8-28.8-28.8s-28.8 12.894-28.8 28.8v61.42l-41.675-27.783c-13.234-8.823-31.116-5.247-39.938 7.987s-5.247 31.116 7.987 39.939l50.456 33.637-50.456 33.637c-13.234 8.823-16.81 26.704-7.987 39.939s26.704 16.81 39.938 7.987l41.675-27.783v61.42c0 15.906 12.894 28.8 28.8 28.8zM787.251 608c15.91 0 28.8-12.894 28.8-28.8v-61.354l41.574 27.716c13.235 8.823 31.117 5.247 39.942-7.987 8.819-13.235 5.248-31.116-7.987-39.939l-50.458-33.637 50.458-33.637c13.235-8.823 16.806-26.704 7.987-39.939-8.826-13.234-26.707-16.81-39.942-7.987l-41.574 27.716v-61.354c0-15.906-12.89-28.8-28.8-28.8-15.904 0-28.8 12.894-28.8 28.8v61.42l-41.67-27.783c-13.235-8.823-31.117-5.247-39.942 7.987-8.819 13.235-5.248 31.116 7.987 39.939l50.458 33.637-50.458 33.637c-13.235 8.823-16.806 26.704-7.987 39.939 8.826 13.234 26.707 16.81 39.942 7.987l41.67-27.783v61.42c0 15.906 12.896 28.8 28.8 28.8zM0 704v-512c0-106.042 85.962-192 192-192h640c106.042 0 192 85.958 192 192v512c0 106.038-85.958 192-192 192h-640c-106.038 0-192-85.962-192-192zM192 800h640c53.018 0 96-42.98 96-96v-512c0-53.018-42.982-96-96-96h-640c-53.020 0-96 42.982-96 96v512c0 53.020 42.98 96 96 96z" />
<glyph unicode="&#xe91b;" glyph-name="contrato-grupal" d="M256 684.8c0 10.604 8.596 19.2 19.2 19.2h89.6c10.604 0 19.2-8.596 19.2-19.2v-89.6c0-10.604-8.596-19.2-19.2-19.2h-89.6c-10.604 0-19.2 8.596-19.2 19.2v89.6zM448 640c0 26.509 21.491 48 48 48h224c26.509 0 48-21.491 48-48s-21.491-48-48-48h-224c-26.509 0-48 21.491-48 48zM256 428.8c0 10.604 8.596 19.2 19.2 19.2h89.6c10.604 0 19.2-8.596 19.2-19.2v-89.6c0-10.604-8.596-19.2-19.2-19.2h-89.6c-10.604 0-19.2 8.596-19.2 19.2v89.6zM448 384c0 26.509 21.491 48 48 48h224c26.509 0 48-21.491 48-48s-21.491-48-48-48h-224c-26.509 0-48 21.491-48 48zM144 960c-44.183 0-80-35.817-80-80v-864c0-44.186 35.817-80 80-80h736c44.186 0 80 35.814 80 80v864c0 44.183-35.814 80-80 80h-736zM160 32v832h704v-832h-704z" />
<glyph unicode="&#xe91c;" glyph-name="contrato-individual" d="M256 640c0 26.509 21.491 48 48 48h416c26.509 0 48-21.491 48-48s-21.491-48-48-48h-416c-26.509 0-48 21.491-48 48zM256 448c0 26.509 21.491 48 48 48h416c26.509 0 48-21.491 48-48s-21.491-48-48-48h-416c-26.509 0-48 21.491-48 48zM256 256c0 26.509 21.491 48 48 48h224c26.509 0 48-21.491 48-48s-21.491-48-48-48h-224c-26.509 0-48 21.491-48 48zM144 960c-44.183 0-80-35.817-80-80v-864c0-44.186 35.817-80 80-80h736c44.186 0 80 35.814 80 80v864c0 44.183-35.814 80-80 80h-736zM160 32v832h704v-832h-704z" />
<glyph unicode="&#xe91d;" glyph-name="copiar" d="M379.871 960c-63.851 0-115.613-51.762-115.613-115.613v-148.645h-148.645c-63.851 0-115.613-51.762-115.613-115.613v-528.513c0-63.853 51.762-115.616 115.613-115.616h528.515c63.853 0 115.616 51.763 115.616 115.616v148.64h148.64c63.853 0 115.616 51.763 115.616 115.616v528.515c0 63.851-51.763 115.613-115.616 115.613h-528.513zM759.744 299.354v280.776c0 63.851-51.763 115.613-115.616 115.613h-280.773v148.645c0 9.121 7.395 16.516 16.516 16.516h528.513c9.126 0 16.518-7.395 16.518-16.516v-528.515c0-9.12-7.392-16.518-16.518-16.518h-148.64zM99.097 580.129c0 9.121 7.395 16.516 16.516 16.516h528.515c9.12 0 16.518-7.395 16.518-16.516v-528.513c0-9.126-7.398-16.518-16.518-16.518h-528.515c-9.121 0-16.516 7.392-16.516 16.518v528.513z" />
<glyph unicode="&#xe91e;" glyph-name="correo" d="M0 768c0 70.692 57.308 128 128 128h768c70.694 0 128-57.308 128-128v-640c0-70.694-57.306-128-128-128h-768c-70.692 0-128 57.306-128 128v640zM128 800c-6.776 0-13.060-2.106-18.234-5.7l402.238-287.313 402.236 287.31c-5.178 3.595-11.462 5.702-18.24 5.702h-768zM96 686.158v-558.158c0-17.67 14.327-32 32-32h768c17.67 0 32 14.33 32 32v558.153l-388.097-277.212c-16.69-11.921-39.11-11.921-55.799 0l-388.104 277.217z" />
<glyph unicode="&#xe91f;" glyph-name="dashboards" d="M0 896c0 35.346 28.654 64 64 64h896c35.347 0 64-28.654 64-64v-896c0-35.347-28.653-64-64-64h-896c-35.346 0-64 28.653-64 64v896zM96 704h832v160h-832v-160zM96 608v-576h240v576h-240zM432 32h496v576h-496v-576z" />
<glyph unicode="&#xe920;" glyph-name="desactivar" d="M1024 448c0 282.77-229.229 512-512 512s-512-229.23-512-512c0-282.771 229.23-512 512-512s512 229.229 512 512zM770.266 121.856c-70.95-56.256-160.685-89.856-258.266-89.856-229.75 0-416 186.246-416 416 0 97.581 33.598 187.315 89.857 258.264l584.408-584.408zM838.144 189.741l-584.404 584.406c70.949 56.257 160.682 89.853 258.26 89.853 229.754 0 416-186.25 416-416 0-97.579-33.594-187.309-89.856-258.259z" />
<glyph unicode="&#xe921;" glyph-name="descargar" d="M512 832c27.662 0 50.087-22.35 50.087-49.92v-411.962l114.841 114.461c19.565 19.495 51.277 19.495 70.835 0 19.565-19.495 19.565-51.102 0-70.597l-200.346-199.677c-19.56-19.501-51.274-19.501-70.834 0l-200.348 199.677c-19.56 19.495-19.56 51.102 0 70.597s51.274 19.495 70.833 0l114.844-114.461v411.962c0 27.57 22.425 49.92 50.087 49.92zM228.174 249.6c0 27.571-22.425 49.92-50.087 49.92s-50.087-22.349-50.087-49.92v-199.68c0-27.571 22.425-49.92 50.087-49.92h667.827c27.661 0 50.086 22.349 50.086 49.92v199.68c0 27.571-22.426 49.92-50.086 49.92s-50.086-22.349-50.086-49.92v-149.76h-567.653v149.76z" />
<glyph unicode="&#xe922;" glyph-name="deshacer" d="M378.469 744.177c20.873 17.942 23.29 49.457 5.399 70.389s-49.316 23.357-70.189 5.415l-232.062-199.478c-0.634-0.539-1.254-1.093-1.861-1.663-1.010-0.948-1.977-1.935-2.898-2.957-7.991-8.856-12.858-20.6-12.858-33.484 0-13.113 5.042-25.045 13.287-33.953 1.366-1.475 2.819-2.868 4.352-4.168l232.040-199.46c20.873-17.942 52.298-15.518 70.189 5.414s15.474 52.447-5.399 70.39l-130.129 111.857h396.403c119.13 0 215.699-96.849 215.699-216.319 0-111.334-64.23-183.078-115.898-228.813-20.614-18.246-22.573-49.792-4.384-70.458 18.195-20.672 49.651-22.643 70.259-4.397 58.56 51.834 149.581 148.762 149.581 303.667 0 174.61-141.146 316.159-315.258 316.159h-396.403l130.129 111.858z" />
<glyph unicode="&#xe923;" glyph-name="documento" d="M304 448c-26.509 0-48-21.491-48-48s21.491-48 48-48h416c26.509 0 48 21.491 48 48s-21.491 48-48 48h-416zM304 256c-26.509 0-48-21.491-48-48s21.491-48 48-48h416c26.509 0 48 21.491 48 48s-21.491 48-48 48h-416zM935.155 704.742c12.442-13.733 20.557-30.68 23.552-48.742h1.293v-624c0-53.018-42.982-96-96-96h-704c-53.020 0-96 42.982-96 96v832c0 53.019 42.98 96 96 96h501.421c27.11 0 52.96-11.464 71.162-31.56l202.573-223.698zM160 32h704v528h-160c-61.856 0-112 50.144-112 112v192h-432v-832zM704 656h145.786l-161.786 178.652v-162.652c0-8.836 7.162-16 16-16z" />
<glyph unicode="&#xe924;" glyph-name="editar" d="M748.352 893.416c47.584 7.859 106.163-0.436 155.245-49.757 49.165-49.403 62.17-105.021 54.246-154.637-7.43-46.509-32.474-84.010-53.805-105.444l-519.646-522.158c-7.006-7.040-15.936-11.834-25.656-13.766l-235.037-46.701c-16.362-3.251-33.261 1.914-45.055 13.76-11.794 11.853-16.93 28.832-13.695 45.274l46.477 236.173c1.923 9.773 6.689 18.746 13.695 25.783l519.646 522.161c19.706 19.8 58.848 41.923 103.584 49.313zM715.814 773.364c-0.23-0.207-0.339-0.312-0.339-0.312l-15.776-15.857 117.85-118.42 15.782 15.857c9.946 9.996 22.394 29.115 25.779 50.316 2.886 18.094 0.032 41.274-26.227 67.661-21.626 21.732-45.376 25.444-68.307 21.656-12.006-1.983-23.398-6.076-32.806-10.788-4.659-2.33-8.538-4.666-11.501-6.705-1.472-1.012-2.63-1.889-3.482-2.582-0.422-0.343-0.742-0.62-0.973-0.824zM746.835 567.722l-117.848 118.42-422.409-424.452-29.048-147.61 146.898 29.19 422.406 424.451z" />
<glyph unicode="&#xe925;" glyph-name="eliminar" d="M462.221 448.001c0 27.491-22.286 49.778-49.777 49.778s-49.778-22.287-49.778-49.778v-132.743c0-27.488 22.286-49.773 49.778-49.773s49.777 22.285 49.777 49.773v132.743zM611.555 497.779c27.492 0 49.777-22.287 49.777-49.778v-132.743c0-27.488-22.285-49.773-49.777-49.773s-49.777 22.285-49.777 49.773v132.743c0 27.491 22.286 49.778 49.777 49.778zM379.259 896h265.484c64.147 0 116.147-52.001 116.147-116.148v-16.593h149.331c27.494 0 49.779-22.286 49.779-49.778s-22.285-49.777-49.779-49.777h-22.419l-70.246-561.964c-7.264-58.125-56.678-101.741-115.251-101.741h-380.597c-58.577 0-107.986 43.616-115.251 101.741l-70.246 561.964h-22.432c-27.492 0-49.778 22.286-49.778 49.777s22.286 49.778 49.778 49.778h149.333v16.593c0 64.147 52.001 116.148 116.148 116.148zM661.331 763.26v16.593c0 9.164-7.43 16.593-16.589 16.593h-265.484c-9.164 0-16.593-7.429-16.593-16.593v-16.593h298.665zM236.54 663.704l68.702-549.612c1.038-8.307 8.097-14.534 16.465-14.534h380.597c8.365 0 15.424 6.227 16.461 14.534l68.704 549.612h-550.929z" />
<glyph unicode="&#xe926;" glyph-name="enlace" d="M675.008 759.416c40.979 40.983 107.424 40.983 148.41 0s40.986-107.43 0-148.413l-83.718-83.722c-20.672-20.668-20.672-54.177 0-74.844 20.666-20.668 54.176-20.668 74.842 0l83.718 83.722c82.323 82.319 82.323 215.784 0 298.102-82.317 82.319-215.782 82.319-298.098 0l-195.349-195.35c-34.723-34.724-72.492-77.948-78.029-133.32-5.885-58.846 25.469-112.222 78.029-164.782 20.668-20.668 54.177-20.668 74.844 0s20.668 54.177 0 74.844c-45.115 45.116-48.645 68.484-47.553 79.406 1.439 14.396 12.508 33.963 47.553 69.007l195.352 195.35zM348.995 136.582c-40.983-40.979-107.429-40.979-148.412 0-40.983 40.986-40.983 107.43 0 148.416l83.721 83.72c20.668 20.668 20.668 54.177 0 74.844s-54.176 20.668-74.844 0l-83.722-83.722c-82.318-82.318-82.318-215.784 0-298.1 82.319-82.323 215.782-82.323 298.1 0l195.349 195.347c34.726 34.726 72.492 77.949 78.028 133.322 5.888 58.846-25.466 112.222-78.028 164.782-20.668 20.668-54.177 20.668-74.844 0s-20.668-54.177 0-74.844c45.115-45.116 48.645-68.484 47.553-79.406-1.439-14.396-12.508-33.963-47.553-69.007l-195.349-195.352z" />
<glyph unicode="&#xe927;" glyph-name="enviar" d="M1009.485 945.486c13.587-13.584 18.093-33.796 11.571-51.864l-328.147-908.707c-0.467-1.286-0.986-2.56-1.555-3.808-6.17-13.459-16.070-24.864-28.531-32.864-12.461-7.994-26.952-12.243-41.757-12.243s-29.297 4.25-41.757 12.243c-12.164 7.808-21.891 18.867-28.085 31.91l-169.023 338.048-338.048 169.023c-13.044 6.194-24.1 15.92-31.906 28.084-7.996 12.46-12.246 26.952-12.246 41.757s4.25 29.297 12.246 41.757c7.996 12.46 19.401 22.362 32.859 28.529 1.249 0.573 2.521 1.092 3.813 1.559l908.701 328.143c18.074 6.525 38.285 2.017 51.866-11.567zM479.42 345.348l138.359-276.721 234.611 649.69-372.97-372.969zM782.317 788.389l-649.688-234.61 276.719-138.359 372.968 372.969z" />
<glyph unicode="&#xe928;" glyph-name="escuelas" d="M156.8 768c-7.069 0-12.8-5.731-12.8-12.8v-70.4c0-7.069 5.731-12.8 12.8-12.8h70.4c7.069 0 12.8 5.731 12.8 12.8v70.4c0 7.069-5.731 12.8-12.8 12.8h-70.4zM316.8 768c-7.069 0-12.8-5.731-12.8-12.8v-70.4c0-7.069 5.731-12.8 12.8-12.8h70.4c7.069 0 12.8 5.731 12.8 12.8v70.4c0 7.069-5.731 12.8-12.8 12.8h-70.4zM144 563.2c0 7.069 5.731 12.8 12.8 12.8h70.4c7.069 0 12.8-5.731 12.8-12.8v-70.4c0-7.069-5.731-12.8-12.8-12.8h-70.4c-7.069 0-12.8 5.731-12.8 12.8v70.4zM316.8 576c-7.069 0-12.8-5.731-12.8-12.8v-70.4c0-7.069 5.731-12.8 12.8-12.8h70.4c7.069 0 12.8 5.731 12.8 12.8v70.4c0 7.069-5.731 12.8-12.8 12.8h-70.4zM620.8 576c-7.069 0-12.8-5.731-12.8-12.8v-70.4c0-7.069 5.731-12.8 12.8-12.8h70.4c7.072 0 12.8 5.731 12.8 12.8v70.4c0 7.069-5.728 12.8-12.8 12.8h-70.4zM780.8 576c-7.072 0-12.8-5.731-12.8-12.8v-70.4c0-7.069 5.728-12.8 12.8-12.8h70.4c7.072 0 12.8 5.731 12.8 12.8v70.4c0 7.069-5.728 12.8-12.8 12.8h-70.4zM608 371.2c0 7.069 5.731 12.8 12.8 12.8h70.4c7.072 0 12.8-5.731 12.8-12.8v-70.4c0-7.072-5.728-12.8-12.8-12.8h-70.4c-7.069 0-12.8 5.728-12.8 12.8v70.4zM780.8 384c-7.072 0-12.8-5.731-12.8-12.8v-70.4c0-7.072 5.728-12.8 12.8-12.8h70.4c7.072 0 12.8 5.728 12.8 12.8v70.4c0 7.069-5.728 12.8-12.8 12.8h-70.4zM544 928c0 17.673-14.327 32-32 32h-480c-17.673 0-32-14.327-32-32v-960c0-17.67 14.327-32 32-32h960c17.67 0 32 14.33 32 32v768c0 17.673-14.33 32-32 32h-448v160zM96 32v832h352v-832h-352zM928 32h-384v640h384v-640z" />
<glyph unicode="&#xe929;" glyph-name="filtro" d="M128 846.222c0 27.492 22.425 49.778 50.087 49.778h667.827c27.661 0 50.086-22.286 50.086-49.778v-93.277c-0.006-35.432-13.677-69.754-38.528-95.313l-0.294-0.306-161.523-163.322v-377.856c0-22.842-15.642-42.752-37.939-48.288l-267.133-66.374c-14.963-3.718-30.815-0.378-42.972 9.056s-19.263 23.91-19.263 39.238v382.072l-167.891 230.086c-21.040 24.757-32.453 56.262-32.456 88.641v95.645zM228.174 796.445v-45.857c0.002-9.481 3.452-18.355 9.256-24.925 1.025-1.161 1.996-2.368 2.908-3.619l178.644-244.82c6.2-8.498 9.539-18.726 9.539-29.223v-334.47l166.957 41.485v359.356c0 13.053 5.159 25.583 14.365 34.893l175.705 177.665c6.394 6.639 10.272 15.958 10.278 26.017v43.5h-567.653z" />
<glyph unicode="&#xe92a;" glyph-name="flecha-abajo" d="M75.539 413.498c17.599 21.12 48.988 23.973 70.107 6.374l316.577-263.814v690.164c0 27.492 22.287 49.778 49.778 49.778s49.777-22.286 49.777-49.778l0.001-690.164 316.577 263.814c21.12 17.599 52.506 14.746 70.106-6.373s14.746-52.508-6.374-70.108l-398.22-331.852c-18.46-15.386-45.274-15.386-63.734 0l-398.221 331.852c-21.12 17.6-23.973 48.988-6.374 70.107z" />
<glyph unicode="&#xe92b;" glyph-name="flecha-arriba" d="M75.539 482.504c17.599-21.119 48.988-23.972 70.107-6.373l316.577 263.814v-690.166c0-27.488 22.287-49.779 49.778-49.779s49.777 22.291 49.777 49.779l0.001 690.166 316.577-263.814c21.12-17.599 52.506-14.746 70.106 6.373s14.746 52.508-6.374 70.108l-398.22 331.851c-18.46 15.383-45.274 15.383-63.734 0l-398.221-331.851c-21.12-17.6-23.973-48.988-6.374-70.108z" />
<glyph unicode="&#xe92c;" glyph-name="flecha-derecha" d="M546.502 884.462c-21.119-17.599-23.972-48.988-6.373-70.107l263.814-316.577h-690.164c-27.492 0-49.778-22.286-49.778-49.777s22.286-49.778 49.778-49.778h690.164l-263.814-316.579c-17.599-21.12-14.746-52.506 6.373-70.106s52.508-14.746 70.108 6.374l331.852 398.221c15.386 18.46 15.386 45.274 0 63.734l-331.852 398.221c-17.6 21.119-48.988 23.973-70.108 6.373z" />
<glyph unicode="&#xe92d;" glyph-name="flecha-izquierda" d="M477.496 884.462c21.119-17.599 23.972-48.988 6.373-70.107l-263.814-316.577h690.166c27.488 0 49.779-22.286 49.779-49.777s-22.291-49.778-49.779-49.778h-690.166l263.814-316.579c17.599-21.12 14.746-52.506-6.373-70.106s-52.508-14.746-70.108 6.374l-331.851 398.221c-15.383 18.46-15.383 45.274 0 63.734l331.851 398.221c17.6 21.119 48.988 23.973 70.108 6.373z" />
<glyph unicode="&#xe92e;" glyph-name="fotografias" d="M64 960c-35.346 0-64-28.654-64-64v-784c0-26.509 21.49-48 48-48s48 21.491 48 48v720c0 17.673 14.327 32 32 32h656c26.509 0 48 21.491 48 48s-21.491 48-48 48h-720zM752 416c44.186 0 80 35.817 80 80s-35.814 80-80 80c-44.186 0-80-35.817-80-80s35.814-80 80-80zM192 704v-704c0-35.347 28.654-64 64-64h704c35.347 0 64 28.653 64 64v704c0 35.346-28.653 64-64 64h-704c-35.346 0-64-28.654-64-64zM288 32v60.211c2.113 1.894 4.088 4 5.891 6.317l183.114 235.435 155.059-232.587c8.493-12.742 22.56-20.666 37.856-21.331 15.302-0.666 29.997 6.010 39.565 17.971l94.496 118.118 122.080-122.074c0.634-0.634 1.28-1.248 1.939-1.837v-60.224h-640zM442.113 445.469l-154.113-198.147v424.678h640v-444.115l-94.054 94.056c-9.658 9.654-22.963 14.74-36.595 13.985s-26.298-7.28-34.829-17.942l-86.995-108.742-155.586 233.384c-8.559 12.838-22.767 20.78-38.186 21.343s-30.169-6.32-39.642-18.499z" />
<glyph unicode="&#xe92f;" glyph-name="guardar" d="M704 320c0 106.038-85.962 192-192 192s-192-85.962-192-192c0-106.042 85.962-192 192-192s192 85.958 192 192zM608 320c0-53.018-42.98-96-96-96s-96 42.982-96 96c0 53.020 42.98 96 96 96s96-42.98 96-96zM778.061 960c16.973 0 33.254-6.743 45.254-18.745l181.939-181.938c12-12.002 18.746-28.281 18.746-45.255v-714.061c0-35.347-28.653-64-64-64h-896c-35.346 0-64 28.653-64 64v896c0 35.346 28.654 64 64 64h714.061zM96 864v-832h832v668.807l-160 160v-156.807c0-35.346-28.653-64-64-64h-384c-35.346 0-64 28.654-64 64v160h-160zM672 736v128h-320v-128h320z" />
<glyph unicode="&#xe930;" glyph-name="info" d="M516.922 704c11.684 0 23.107-3.465 32.822-9.956s17.287-15.718 21.759-26.513c4.471-10.795 5.641-22.673 3.361-34.133s-7.906-21.987-16.168-30.248c-8.262-8.262-18.788-13.889-30.248-16.168s-23.338-1.109-34.133 3.362c-10.795 4.472-20.022 12.044-26.513 21.759s-9.956 21.137-9.956 32.821c0 15.668 6.224 30.695 17.303 41.774s26.106 17.303 41.773 17.303zM566.154 157.536h-39.384c-10.445 0-20.463 4.154-27.849 11.539s-11.536 17.402-11.536 27.846v236.309c-10.445 0-20.463 4.15-27.849 11.535s-11.535 17.404-11.535 27.85c0 10.445 4.15 20.463 11.535 27.849s17.404 11.535 27.849 11.535h39.385c10.445 0 20.463-4.15 27.849-11.535s11.535-17.404 11.535-27.849v-236.308c10.445 0 20.463-4.147 27.85-11.533s11.535-17.408 11.535-27.853c0-10.445-4.15-20.461-11.535-27.846s-17.404-11.539-27.85-11.539zM1024 448c0 282.77-229.229 512-512 512s-512-229.23-512-512c0-282.771 229.23-512 512-512s512 229.229 512 512zM928 448c0-229.754-186.246-416-416-416-229.75 0-416 186.246-416 416 0 229.75 186.25 416 416 416 229.754 0 416-186.25 416-416z" />
<glyph unicode="&#xe931;" glyph-name="inicio" d="M482.554 950.683c17.667 12.423 41.23 12.423 58.898 0l396.794-288c13.638-9.588 21.754-25.213 21.754-41.883v-633.6c0-28.275-22.925-51.2-51.2-51.2h-281.6c-28.277 0-51.2 22.925-51.2 51.2v294.4h-128v-294.4c0-28.275-22.923-51.2-51.2-51.2h-281.6c-28.277 0-51.2 22.925-51.2 51.2v633.6c0 16.669 8.115 32.295 21.751 41.883l396.803 288zM166.4 594.211v-555.811h179.2v294.4c0 28.277 22.923 51.2 51.2 51.2h230.4c28.275 0 51.2-22.923 51.2-51.2v-294.4h179.2v555.811l-345.597 252-345.603-252z" />
<glyph unicode="&#xe932;" glyph-name="ir" d="M640 912c0-26.509 21.491-48 48-48h172.115l-366.056-366.059c-18.745-18.745-18.745-49.137 0-67.882s49.137-18.745 67.882 0l366.059 366.059v-172.118c0-26.509 21.491-48 48-48s48 21.491 48 48v288c0 26.51-21.491 48-48 48h-288c-26.509 0-48-21.49-48-48zM99.556 715.852c0 9.164 7.428 16.592 16.592 16.592h398.223c27.491 0 49.777 22.287 49.777 49.778s-22.286 49.778-49.777 49.778h-398.223c-64.146 0-116.148-52.001-116.148-116.148v-663.705c0-64.147 52.001-116.147 116.148-116.147h663.705c64.147 0 116.147 52 116.147 116.147v331.853c0 27.491-22.285 49.778-49.779 49.778-27.488 0-49.779-22.287-49.779-49.778v-331.853c0-9.165-7.424-16.589-16.589-16.589h-663.705c-9.164 0-16.592 7.424-16.592 16.589v663.705z" />
<glyph unicode="&#xe933;" glyph-name="mas" d="M561.778 846.222c0 27.492-22.287 49.778-49.778 49.778s-49.778-22.286-49.778-49.778v-348.444h-348.444c-27.492 0-49.778-22.287-49.778-49.778s22.286-49.778 49.778-49.778h348.444v-348.443c0-27.494 22.287-49.779 49.778-49.779s49.778 22.285 49.778 49.779v348.443h348.443c27.494 0 49.779 22.287 49.779 49.778s-22.285 49.778-49.779 49.778h-348.443v348.444z" />
<glyph unicode="&#xe934;" glyph-name="menos" d="M80 448c0 26.509 21.491 48 48 48h768c26.509 0 48-21.491 48-48s-21.491-48-48-48h-768c-26.509 0-48 21.491-48 48z" />
<glyph unicode="&#xe935;" glyph-name="notificacion" d="M508.797 960c26.509 0 48-21.49 48-48v-83.649c137.923-22.696 243.453-148.526 243.453-300.351v-229.491c0-4.243 1.6-8.314 4.442-11.315l72.518-76.474c40.141-42.336 11.712-114.72-45.056-114.72h-130.81c-15.232-90.81-94.208-160-189.344-160s-174.111 69.19-189.345 160h-130.808c-56.767 0-85.196 72.384-45.056 114.72l72.516 76.474c2.845 3.002 4.444 7.072 4.444 11.315v229.491c0 149.465 102.277 273.737 237.047 299.219v84.781c0 26.51 21.491 48 48 48zM430.781 96c12.763-32.371 44.316-55.27 81.219-55.27s68.456 22.899 81.219 55.27h-162.438zM512 736c-108.924 0-197.224-93.124-197.224-208v-229.491c0-29.702-11.188-58.189-31.105-79.194l-25.898-27.315h508.454l-25.901 27.315c-19.917 21.005-31.104 49.491-31.104 79.194v229.491c0 114.876-88.299 208-197.222 208z" />
<glyph unicode="&#xe936;" glyph-name="paquetes" d="M64 896h896c35.347 0 64-28.654 64-64v-256c0-35.346-28.653-64-64-64v-496c0-44.186-35.814-80-80-80h-736c-44.183 0-80 35.814-80 80v496c-35.346 0-64 28.654-64 64v256c0 35.346 28.654 64 64 64zM96 800v-192h832v192h-832zM160 32h304v480h-304v-480zM560 32h304v480h-304v-480z" />
<glyph unicode="&#xe937;" glyph-name="perfil-acceso" d="M546.944 953.443l348.442-135.254c18.982-7.365 35.341-20.551 46.886-37.797s17.728-37.728 17.728-58.71v-276.33c0-86.121-23.168-170.542-66.906-243.803-43.738-73.254-106.323-132.461-180.736-170.976l-166.957-86.406c-10.371-5.37-21.806-8.166-33.401-8.166s-23.030 2.797-33.401 8.166l-166.955 86.406c-74.415 38.515-137 97.722-180.739 170.976-43.74 73.261-66.907 157.682-66.905 243.803v276.33c-0.002 20.982 6.182 41.465 17.729 58.71s27.902 30.432 46.883 37.797l348.444 135.254c22.531 8.742 47.357 8.742 69.888 0zM512 856.936l-348.444-135.254v-276.33c0.011-66.976 18.039-132.628 52.063-189.595s82.701-103.008 140.577-132.954l155.804-80.742 155.802 80.64c57.894 29.952 106.579 76.006 140.608 132.998 34.022 56.986 52.045 122.659 52.032 189.652v276.33l-348.442 135.254zM512 654.339c21.249 0.009 41.942-7.020 59.055-20.057s29.747-31.401 36.054-52.404c6.307-21.003 5.957-43.544-0.999-64.326s-20.154-38.716-37.662-51.178l-6.67-4.38v-168.33c-0.014-13.133-4.872-25.766-13.582-35.315s-20.613-15.296-33.279-16.070c-12.666-0.768-25.137 3.501-34.866 11.93s-15.982 20.384-17.48 33.427l-0.349 6.029v168.33c-19.003 11.332-33.859 28.841-42.262 49.809s-9.882 44.222-4.207 66.15c5.675 21.927 18.186 41.302 35.59 55.114s38.726 21.29 60.657 21.271z" />
<glyph unicode="&#xe938;" glyph-name="pin" d="M416 451.199c0-44.183-35.817-80-80-80s-80 35.817-80 80c0 44.182 35.817 80 80 80s80-35.818 80-80zM640 451.199c0-44.183-35.817-80-80-80s-80 35.817-80 80c0 44.182 35.817 80 80 80s80-35.818 80-80zM864 451.199c0-44.183-35.814-80-80-80s-80 35.817-80 80c0 44.182 35.814 80 80 80s80-35.818 80-80zM352 896h478.573c106.829 0 193.427-85.962 193.427-192v-512c0-106.042-86.598-192-193.427-192h-478.573c-73.265 0-140.241 41.088-173.006 106.138l-172.187 313.241c-9.076 18.017-9.076 39.226 0 57.243l172.187 313.244c32.765 65.046 99.741 106.135 173.006 106.135zM830.573 800h-478.573c-36.632 0-70.12-20.544-86.503-53.068l-164.979-298.932 164.979-298.931c16.382-32.525 49.871-53.069 86.503-53.069h478.573c53.414 0 96.717 42.982 96.717 96v512c0 53.020-43.302 96-96.717 96z" />
<glyph unicode="&#xe939;" glyph-name="produccion" d="M400 592c0 26.509 21.491 48 48 48h128c26.509 0 48-21.491 48-48s-21.491-48-48-48h-128c-26.509 0-48 21.491-48 48zM256 960h512c35.347 0 64-28.654 64-64v-448c0-35.347-28.653-64-64-64h-512c-35.346 0-64 28.653-64 64v448c0 35.346 28.654 64 64 64zM288 864v-384h448v384h-448zM288 128c0-26.509-21.491-48-48-48s-48 21.491-48 48c0 26.509 21.491 48 48 48s48-21.491 48-48zM512 80c26.509 0 48 21.491 48 48s-21.491 48-48 48c-26.509 0-48-21.491-48-48s21.491-48 48-48zM784 80c26.509 0 48 21.491 48 48s-21.491 48-48 48c-26.509 0-48-21.491-48-48s21.491-48 48-48zM96 320h832c53.018 0 96-42.982 96-96v-192c0-53.018-42.982-96-96-96h-832c-53.019 0-96 42.982-96 96v192c0 53.018 42.981 96 96 96zM928 224h-832v-192h832v192z" />
<glyph unicode="&#xe93a;" glyph-name="puntos" d="M288 448c0-53.020-42.98-96-96-96s-96 42.98-96 96c0 53.020 42.98 96 96 96s96-42.98 96-96zM608 448c0-53.020-42.98-96-96-96s-96 42.98-96 96c0 53.020 42.98 96 96 96s96-42.98 96-96zM832 352c53.018 0 96 42.98 96 96s-42.982 96-96 96c-53.018 0-96-42.98-96-96s42.982-96 96-96z" />
<glyph unicode="&#xe93b;" glyph-name="puntos-vertical" d="M512 672c-53.020 0-96 42.98-96 96s42.98 96 96 96c53.020 0 96-42.98 96-96s-42.98-96-96-96zM512 352c-53.020 0-96 42.98-96 96s42.98 96 96 96c53.020 0 96-42.98 96-96s-42.98-96-96-96zM416 128c0-53.018 42.98-96 96-96s96 42.982 96 96c0 53.018-42.98 96-96 96s-96-42.982-96-96z" />
<glyph unicode="&#xe93c;" glyph-name="quitar" d="M320 496c-26.509 0-48-21.491-48-48s21.491-48 48-48c215.076 0 139.882 0 384 0 26.509 0 48 21.491 48 48s-21.491 48-48 48c-215.416 0-139.444 0-384 0zM1024 448c0 282.77-229.229 512-512 512s-512-229.23-512-512c0-282.771 229.23-512 512-512s512 229.229 512 512zM928 448c0-229.754-186.246-416-416-416-229.75 0-416 186.246-416 416 0 229.75 186.25 416 416 416 229.754 0 416-186.25 416-416z" />
<glyph unicode="&#xe93d;" glyph-name="realizar" d="M941.318 821.023c21.466-17.281 24.947-48.8 7.77-70.401l-530.959-667.825c-8.845-11.123-21.98-17.933-36.117-18.72s-27.939 4.518-37.951 14.592l-265.48 267.131c-19.44 19.56-19.44 51.274 0 70.834s50.957 19.56 70.396 0l226.155-227.558 496.223 624.125c17.171 21.6 48.493 25.102 69.965 7.822z" />
<glyph unicode="&#xe93e;" glyph-name="rehacer" d="M645.53 744.177c-20.872 17.942-23.289 49.457-5.395 70.389 17.888 20.933 49.312 23.357 70.189 5.415l232.058-199.478c0.634-0.539 1.254-1.093 1.862-1.663 1.011-0.948 1.978-1.935 2.899-2.957 7.994-8.856 12.858-20.6 12.858-33.484 0-13.113-5.043-25.045-13.286-33.953-1.363-1.475-2.822-2.868-4.352-4.168l-232.038-199.46c-20.877-17.942-52.301-15.518-70.189 5.414-17.894 20.933-15.476 52.447 5.395 70.39l130.131 111.857h-396.401c-119.13 0-215.704-96.849-215.704-216.319 0-111.334 64.232-183.078 115.902-228.813 20.612-18.246 22.573-49.792 4.381-70.458-18.192-20.672-49.649-22.643-70.26-4.397-58.561 51.834-149.579 148.762-149.579 303.667 0 174.61 141.146 316.159 315.26 316.159h396.401l-130.131 111.858z" />
<glyph unicode="&#xe93f;" glyph-name="reloj" d="M528 640c0 26.509-21.491 48-48 48s-48-21.491-48-48v-256c0-16.049 8.021-31.036 21.374-39.939l192.002-127.997c22.054-14.707 51.859-8.749 66.56 13.312 14.707 22.054 8.749 51.859-13.312 66.56l-170.624 113.753v230.311zM1024 448c0 282.77-229.229 512-512 512s-512-229.23-512-512c0-282.771 229.23-512 512-512s512 229.229 512 512zM928 448c0-229.754-186.246-416-416-416-229.75 0-416 186.246-416 416 0 229.75 186.25 416 416 416 229.754 0 416-186.25 416-416z" />
<glyph unicode="&#xe940;" glyph-name="reloj-arena" d="M128 848c0 26.509 21.491 48 48 48h672c26.509 0 48-21.491 48-48s-21.491-48-48-48h-49.901c-8.902-78.129-47.923-168.143-92.845-239.568-26.176-41.613-56.192-79.919-87.035-108.428-1.45-1.34-2.92-2.676-4.411-4.004 1.491-1.329 2.961-2.664 4.411-4.004 30.843-28.509 60.859-66.815 87.035-108.428 44.922-71.427 83.942-161.437 92.845-239.568h49.901c26.509 0 48-21.491 48-48s-21.491-48-48-48h-672c-26.509 0-48 21.491-48 48s21.491 48 48 48h49.9c8.9 78.131 47.924 168.141 92.847 239.568 26.172 41.613 56.188 79.919 87.034 108.428 1.45 1.34 2.92 2.676 4.411 4.004-1.491 1.329-2.961 2.664-4.411 4.004-30.845 28.509-60.861 66.815-87.034 108.428-44.923 71.425-83.947 161.439-92.847 239.568h-49.9c-26.509 0-48 21.491-48 48zM317.766 800c8.816-54.431 37.634-124.276 76.751-186.471 23.091-36.714 48.022-67.898 71.176-89.298 24.945-23.055 40.734-28.231 46.307-28.231s21.362 5.176 46.307 28.231c23.155 21.4 48.085 52.584 71.176 89.298 39.118 62.195 67.937 132.040 76.75 186.471h-388.468zM317.766 96h388.468c-8.813 54.432-37.632 124.275-76.75 186.47-23.091 36.717-48.022 67.899-71.176 89.299-24.945 23.055-40.734 28.231-46.307 28.231s-21.362-5.176-46.307-28.231c-23.155-21.4-48.085-52.582-71.176-89.299-39.117-62.195-67.935-132.038-76.751-186.47z" />
<glyph unicode="&#xe941;" glyph-name="reportes" d="M640.147 936.458c15.072 15.074 35.514 23.542 56.832 23.542h246.643c21.318 0 41.76-8.468 56.838-23.542 15.072-15.074 23.539-35.519 23.539-56.836v-863.244c0-21.318-8.467-41.76-23.539-56.838-15.078-15.072-35.52-23.539-56.838-23.539h-863.244c-21.317 0-41.762 8.467-56.836 23.539-15.074 15.078-23.542 35.52-23.542 56.838v415.244c0 21.317 8.468 41.762 23.542 56.836s35.519 23.542 56.836 23.542h227.923v175.622c0 21.317 8.468 41.762 23.542 56.836s35.519 23.542 56.836 23.542h227.923v111.622c0 21.317 8.468 41.762 23.545 56.836zM616.602 668.903h-209.204v-633.805h209.204v633.805zM715.699 35.098h209.203v825.805h-209.203v-825.805zM308.301 35.098v377.805h-209.204v-377.805h209.204z" />
<glyph unicode="&#xe942;" glyph-name="salir" d="M339.478 960c-46.104 0-83.478-36.973-83.478-82.58v-231.226c0-27.364 22.425-49.548 50.087-49.548s50.087 22.184 50.087 49.548v214.71h567.653v-825.805h-567.653v214.707c0 27.366-22.425 49.549-50.087 49.549s-50.087-22.182-50.087-49.549v-231.226c0-45.606 37.375-82.579 83.478-82.579h601.046c46.099 0 83.475 36.973 83.475 82.579v858.84c0 45.608-37.376 82.58-83.475 82.58h-601.046zM209.941 545.258c18.745 18.745 18.745 49.137 0 67.882s-49.137 18.745-67.882 0l-128-128c-18.745-18.745-18.745-49.137 0-67.882l128-127.997c18.745-18.746 49.137-18.746 67.882 0s18.745 49.134 0 67.88l-46.059 46.059h332.118c26.509 0 48 21.49 48 48s-21.491 48-48 48h-332.118l46.059 46.059z" />
<glyph unicode="&#xe943;" glyph-name="signo-pesos" d="M767.878 301.306c0 152.675-101.907 196.451-212.152 221.091l-58.433 12.496c-86.407 17.936-93.075 44.4-93.075 79.824 0 45.968 39.233 73.44 104.955 73.44 77.83 0 97.772-41.28 106.046-72.288l0.788-2.576c9.789-27.040 32.536-43.168 60.92-43.168 7.347 0 13.952 1.184 18.893 2.24 30.464 6.4 51.674 32 51.674 62.32 0 7.52-1.286 14.976-3.878 22.224-15.61 52.992-59.462 136.4-180.98 155.44v90.88c0 75.696-112.289 75.696-112.289 0v-91.424c-130.534-21.568-178.602-115.328-178.602-197.056 0-148.704 98.076-190.16 193.877-211.024l63.206-14.176c90.013-19.328 105.879-44.112 105.879-89.011 0-54.861-43.93-87.565-117.578-87.565-95.605 0-115.093 45.453-128.125 96.48-7.622 28.239-31.793 46.431-61.6 46.431-6.501 0-11.714-0.912-18.003-2.048l-1.894-0.384c-30.823-7.728-51.508-33.36-51.508-63.743 0-5.779 0.97-10.688 1.758-14.656l0.97-4.544c13.866-49.491 44.476-157.568 197.15-181.683v-95.117c0-37.875 28.216-57.696 56.13-57.696s56.16 19.821 56.16 57.696v93.453c121.228 16.672 199.832 98.451 199.832 214.131z" />
<glyph unicode="&#xe944;" glyph-name="subir" d="M563.2 659.492v-416.964c0-27.904-22.923-50.528-51.2-50.528s-51.2 22.624-51.2 50.528v416.964l-117.396-115.852c-19.995-19.732-52.413-19.732-72.408 0s-19.994 51.724 0 71.455l204.8 202.106c19.995 19.732 52.413 19.732 72.408 0l204.801-202.106c19.994-19.731 19.994-51.723 0-71.455s-52.416-19.732-72.41 0l-117.395 115.852zM178.087 299.52c27.662 0 50.087-22.349 50.087-49.92v-149.76h567.653v149.76c0 27.571 22.426 49.92 50.086 49.92s50.086-22.349 50.086-49.92v-199.68c0-27.571-22.426-49.92-50.086-49.92h-667.827c-27.662 0-50.087 22.349-50.087 49.92v199.68c0 27.571 22.425 49.92 50.087 49.92z" />
<glyph unicode="&#xe945;" glyph-name="sucursal" d="M144 960c-26.509 0-48-21.49-48-48s21.491-48 48-48h736c26.509 0 48 21.491 48 48s-21.491 48-48 48h-736zM76.247 747.482l-75.259-320.408c-5.139-21.88 10.409-43.075 31.598-43.075h31.413v-410.669c0-20.614 14.327-37.331 32-37.331h531.2c7.069 0 12.8 6.688 12.8 14.931v433.069h224v-435.2c0-7.072 5.728-12.8 12.8-12.8h51.2c17.67 0 32 14.33 32 32v416h31.411c21.19 0 36.742 21.195 31.603 43.075l-75.264 320.408c-7.245 30.865-33.306 52.518-63.194 52.518h-745.114c-29.891 0-55.946-21.652-63.196-52.518zM116.018 488l48.856 208h694.25l48.858-208h-791.963zM160 384h384v-352h-384v352z" />
<glyph unicode="&#xe946;" glyph-name="telefono" d="M323.437 259.392c197.157-197.158 379.853-218.746 433.491-220.742 64.813-2.362 130.957 50.554 159.571 104.755-45.638 53.53-105.069 95.066-170.138 140.083-38.406-38.355-85.734-109.626-148.751-84.090-35.842 14.406-124.345 55.174-201.669 132.548-77.376 77.325-118.090 165.827-132.6 201.618-25.536 63.121 45.943 110.552 84.349 148.957-45.021 66.147-85.837 127.114-139.267 170.442-54.968-28.715-108.193-94.348-105.782-160.033 1.999-53.635 23.587-236.332 220.795-433.539zM753.133-63.853c-73.837 2.714-283.097 31.635-502.252 250.739-219.103 219.154-247.972 428.361-250.741 502.25-4.102 112.602 82.144 221.974 181.774 264.687 11.997 5.181 25.135 7.153 38.125 5.724s25.384-6.211 35.969-13.877c82.452-60.147 139.317-151.265 188.184-222.641 10.165-14.842 14.822-32.771 13.165-50.684s-9.525-34.683-22.241-47.407l-69.531-69.582c16.152-35.637 49.020-97.066 102.86-150.906s115.269-86.71 150.957-102.858l69.48 69.528c12.774 12.743 29.613 20.6 47.584 22.202s35.936-3.152 50.765-13.434c72.813-50.456 158.336-106.501 220.691-186.335 8.288-10.662 13.562-23.354 15.264-36.749s-0.218-27.002-5.574-39.398c-42.918-100.141-151.52-185.414-264.48-181.261z" />
<glyph unicode="&#xe947;" glyph-name="ubicacion" d="M512 704c-106.038 0-192-85.962-192-192s85.962-192 192-192c106.038 0 192 85.962 192 192s-85.962 192-192 192zM414.189 512c0 54.020 43.791 97.811 97.811 97.811s97.811-43.791 97.811-97.811c0-54.020-43.791-97.811-97.811-97.811s-97.811 43.791-97.811 97.811zM928 541.303c0 226.909-188.282 418.697-416 418.697-227.716 0-416-191.788-416-418.697 0-196.397 137.904-336.612 270.34-471.274 38.846-39.494 77.222-78.515 111.509-118.336 8.584-9.965 21.044-15.693 34.151-15.693s25.567 5.728 34.151 15.693c34.287 39.821 72.663 78.842 111.507 118.336 132.442 134.662 270.342 274.877 270.342 471.274zM186.385 541.303c0 177.608 147.375 327.727 325.615 327.727s325.613-150.118 325.613-327.727c0-160.953-116.282-276.842-227.066-387.242-34.627-34.509-68.716-68.48-98.547-103.123-29.832 34.643-63.921 68.614-98.547 103.123-110.782 110.4-227.069 226.289-227.069 387.242z" />
<glyph unicode="&#xe948;" glyph-name="universidad" d="M64 662.56v-54.276c0-17.83 14.327-32.284 32-32.284h832c17.67 0 32 14.454 32 32.284v54.276c0 25.829-15.258 49.173-38.79 59.347l-396.604 171.482c-8.049 3.481-17.162 3.481-25.211 0l-396.605-171.482c-23.532-10.174-38.789-33.518-38.789-59.347zM512 793.468l278.963-120.616h-557.925l278.962 120.616zM192 464c0 26.509-21.491 48-48 48s-48-21.491-48-48v-306.733c-18.643-6.586-32-24.365-32-45.267 0-26.509 21.491-48 48-48h800c26.509 0 48 21.491 48 48 0 20.902-13.357 38.682-32 45.267v315.203c0 21.832-21.491 39.53-48 39.53s-48-17.698-48-39.53v-312.47h-80v312.47c0 21.832-21.491 39.53-48 39.53s-48-17.698-48-39.53v-312.47h-96v312.47c0 21.832-21.491 39.53-48 39.53s-48-17.698-48-39.53v-312.47h-96v312.47c0 21.832-21.491 39.53-48 39.53s-48-17.698-48-39.53v-312.47h-80v304zM43.886 32c-24.237 0-43.886-21.491-43.886-48s19.648-48 43.886-48h936.23c24.237 0 43.885 21.491 43.885 48s-19.648 48-43.885 48h-936.23z" />
<glyph unicode="&#xe949;" glyph-name="usuario" d="M768 704c0 141.385-114.618 256-256 256-141.385 0-256-114.615-256-256s114.615-256 256-256c141.382 0 256 114.615 256 256zM672 704c0-88.365-71.635-160-160-160s-160 71.635-160 160c0 88.365 71.635 160 160 160s160-71.635 160-160zM64 64v-64c0-35.347 28.654-64 64-64h768c35.347 0 64 28.653 64 64v64c0 141.382-114.618 256-256 256h-384c-141.385 0-256-114.618-256-256zM160 64c0 88.365 71.635 160 160 160h384c88.365 0 160-71.635 160-160v-32h-704v32z" />
<glyph unicode="&#xe94a;" glyph-name="usuarios" d="M352 448c-141.385 0-256 114.615-256 256s114.615 256 256 256c141.385 0 256-114.615 256-256s-114.615-256-256-256zM352 544c88.365 0 160 71.635 160 160s-71.635 160-160 160c-88.365 0-160-71.635-160-160s71.635-160 160-160zM256 320h192c141.385 0 256-114.618 256-256v-64c0-35.347-28.653-64-64-64h-576c-35.346 0-64 28.653-64 64v64c0 141.382 114.615 256 256 256zM256 224c-88.365 0-160-71.635-160-160v-32h512v32c0 88.365-71.635 160-160 160h-192zM800 384c-88.365 0-160 71.635-160 160s71.635 160 160 160c88.365 0 160-71.635 160-160s-71.635-160-160-160zM800 480c35.347 0 64 28.654 64 64s-28.653 64-64 64c-35.347 0-64-28.654-64-64s28.653-64 64-64zM704 208c0 26.509 21.491 48 48 48h128c79.526 0 144-64.474 144-144v-83.2c0-51.251-41.549-92.8-92.8-92.8h-147.2c-26.509 0-48 21.491-48 48s21.491 48 48 48h144v80c0 26.509-21.491 48-48 48h-128c-26.509 0-48 21.491-48 48z" />
<glyph unicode="&#xe94b;" glyph-name="visualizacion-abierta" d="M102.851 416c0.573-1.97 1.826-5.903 4.524-12.141 4.785-11.061 12.412-25.505 23.001-42.38 21.138-33.682 52.319-74.248 91.194-113.224 79.068-79.27 181.989-144.256 290.431-144.256s211.36 64.986 290.432 144.256c38.874 38.976 70.054 79.542 91.194 113.224 10.586 16.874 18.214 31.318 23.002 42.38 2.694 6.237 3.949 10.171 4.525 12.141-0.576 1.971-1.83 5.903-4.525 12.141-4.787 11.061-12.416 25.505-23.002 42.38-21.139 33.682-52.32 74.248-91.194 113.224-79.072 79.274-181.99 144.256-290.432 144.256s-211.363-64.982-290.431-144.256c-38.874-38.975-70.056-79.542-91.194-113.224-10.589-16.874-18.216-31.318-23.001-42.38-2.698-6.237-3.951-10.17-4.524-12.141zM149.631 657.756c87.332 87.56 214.811 174.244 362.369 174.244s275.040-86.684 362.368-174.244c44.326-44.442 80.346-91.083 105.606-131.339 12.614-20.095 22.989-39.302 30.4-56.441 6.611-15.288 13.626-35.002 13.626-53.976s-7.014-38.689-13.626-53.976c-7.411-17.139-17.786-36.346-30.4-56.443-25.261-40.256-61.28-86.893-105.606-131.334-87.328-87.565-214.81-174.246-362.368-174.246s-275.037 86.682-362.369 174.246c-44.326 44.442-80.344 91.078-105.607 131.334-12.611 20.097-22.984 39.304-30.399 56.443-6.614 15.288-13.625 35.002-13.625 53.976s7.012 38.689 13.625 53.976c7.415 17.139 17.788 36.346 30.399 56.441 25.263 40.256 61.281 86.897 105.607 131.339zM512 520c-56.554 0-102.4-46.563-102.4-104s45.846-104 102.4-104c56.554 0 102.4 46.563 102.4 104s-45.846 104-102.4 104zM307.2 416c0 114.876 91.692 208 204.8 208s204.8-93.124 204.8-208c0-114.874-91.692-208-204.8-208s-204.8 93.126-204.8 208z" />
<glyph unicode="&#xe94c;" glyph-name="visualizacion-cerrada" d="M27.411 698.122c25.036 13.144 55.988 3.503 69.132-21.533 17.418-33.176 54.013-70.943 106.081-105.889 64.218-43.101 145.8-77.74 226.573-92.736 28.307-5.256 56.152-8.031 82.813-8.031 42.889 0 88.679 7.182 134.281 20.156 65.222 18.557 128.134 48.417 179.226 83.407 49.971 34.22 85.037 70.861 101.958 103.094 13.146 25.037 44.096 34.677 69.133 21.533s34.682-44.096 21.536-69.132c-20.717-39.459-53.926-76.426-93.574-109.088l90.342-130.548c16.090-23.252 10.285-55.146-12.966-71.236-23.251-16.096-55.142-10.291-71.238 12.964l-90.496 130.769c-35.744-20.652-74.566-38.866-114.848-53.64l50.195-148.641c9.050-26.79-5.338-55.84-32.128-64.89s-55.84 5.338-64.89 32.128l-51.702 153.095c-38.102-7.915-76.798-12.372-114.828-12.372-18.956 0-38.059 1.108-57.148 3.192l-47.876-143.716c-8.937-26.829-37.93-41.331-64.758-32.397-26.828 8.941-41.331 37.933-32.394 64.762l43.69 131.15c-58.522 16.292-115.373 40.349-166.060 69.231l-94.932-129.766c-16.696-22.82-48.731-27.786-71.553-11.095-22.822 16.698-27.788 48.733-11.093 71.556l92.781 126.826c-41.117 33.339-75.537 71.233-96.791 111.716-13.144 25.036-3.503 55.988 21.533 69.132z" />
<glyph unicode="&#xe94d;" glyph-name="whatsapp" d="M874.771 811.005c-47.181 47.406-103.373 84.994-165.306 110.573-61.926 25.58-128.354 38.639-195.407 38.418-280.957 0-509.942-227.839-509.942-507.391 0-89.6 23.67-176.639 67.924-253.439l-72.040-263.168 270.151 70.656c74.612-40.448 158.488-61.952 243.907-61.952 280.956 0 509.942 227.84 509.942 507.391 0 135.679-52.998 263.167-149.229 358.911zM514.058 30.72c-76.157 0-150.77 20.48-216.12 58.88l-15.437 9.216-160.547-41.984 42.709 155.648-10.291 15.872c-42.321 67.219-64.788 144.932-64.836 224.255 0 232.447 190.392 421.887 424.008 421.887 113.206 0 219.724-44.032 299.48-123.903 39.501-39.11 70.803-85.634 92.090-136.874s32.141-106.176 31.923-161.621c1.030-232.447-189.363-421.375-422.979-421.375zM746.643 346.111c-12.864 6.144-75.642 36.864-86.963 41.472-11.834 4.096-20.066 6.144-28.813-6.144-8.748-12.8-32.933-41.472-40.137-49.664-7.204-8.704-14.923-9.728-27.787-3.072-12.865 6.144-54.030 19.968-102.4 62.976-38.079 33.792-63.293 75.264-71.011 88.064-7.204 12.8-1.029 19.456 5.66 26.112 5.661 5.632 12.865 14.848 19.039 22.015s8.748 12.8 12.865 20.992c4.116 8.704 2.058 15.872-1.029 22.016s-28.817 68.608-39.108 94.208c-10.291 24.576-21.098 21.504-28.816 22.016h-24.7c-8.748 0-22.127-3.072-33.962-15.872-11.321-12.8-44.253-43.52-44.253-105.984s45.797-122.879 51.972-131.071c6.175-8.704 90.050-136.703 217.664-191.487 30.36-13.312 54.031-20.992 72.555-26.624 30.36-9.728 58.146-8.192 80.271-5.12 24.704 3.584 75.648 30.72 85.939 60.416 10.803 29.696 10.803 54.783 7.2 60.415s-11.322 8.192-24.186 14.336z" />
<glyph unicode="&#xe94e;" glyph-name="confirmar-filled" d="M512-64c282.771 0 512 229.229 512 512s-229.229 512-512 512c-282.77 0-512-229.23-512-512s229.23-512 512-512zM748.781 628.671c22.080-17.834 25.664-50.364 8-72.657l-273.068-344.616c-9.098-11.482-22.608-18.509-37.149-19.322s-28.737 4.666-39.035 15.066l-136.533 137.843c-19.994 20.187-19.994 52.917 0 73.104s52.413 20.187 72.408 0l96.084-97.007 237.332 299.516c17.664 22.293 49.882 25.907 71.962 8.073z" />
<glyph unicode="&#xe94f;" glyph-name="cancelar-filled" d="M512-64c-282.77 0-512 229.229-512 512s229.23 512 512 512c282.771 0 512-229.23 512-512s-229.229-512-512-512zM343.404 689.004c-19.995 19.994-52.413 19.994-72.408 0s-19.994-52.413 0-72.408l168.596-168.596-168.596-168.595c-19.994-19.994-19.994-52.416 0-72.41s52.413-19.994 72.408 0l168.596 168.597 168.595-168.597c19.994-19.994 52.416-19.994 72.41 0s19.994 52.416 0 72.41l-168.597 168.595 168.597 168.596c19.994 19.995 19.994 52.413 0 72.408s-52.416 19.994-72.41 0l-168.595-168.596-168.596 168.596z" />
<glyph unicode="&#xe950;" glyph-name="info-filled" d="M512-64c-282.77 0-512 229.229-512 512s229.23 512 512 512c282.771 0 512-229.23 512-512s-229.229-512-512-512zM549.745 694.044c-9.715 6.492-21.137 9.956-32.822 9.956-15.668 0-30.694-6.224-41.773-17.303s-17.303-26.106-17.303-41.774c0-11.684 3.464-23.106 9.956-32.821s15.718-17.287 26.513-21.759c10.795-4.471 22.673-5.641 34.133-3.362s21.986 7.906 30.248 16.168c8.262 8.262 13.889 18.788 16.168 30.248s1.11 23.338-3.362 34.133c-4.471 10.795-12.043 20.022-21.758 26.513zM526.769 152.614h39.384c10.445 0 20.463 4.154 27.85 11.539s11.535 17.402 11.535 27.846c0 10.445-4.15 20.461-11.535 27.846-7.386 7.392-17.404 11.539-27.85 11.539v236.307c0 10.445-4.149 20.463-11.535 27.85s-17.404 11.535-27.849 11.535h-39.385c-10.445 0-20.463-4.15-27.849-11.535s-11.535-17.404-11.535-27.85c0-10.445 4.15-20.463 11.535-27.849s17.404-11.535 27.849-11.535v-236.308c0-10.445 4.15-20.461 11.536-27.846s17.404-11.539 27.849-11.539z" />
</font>
</defs>
</svg>
